<?xml version="1.0" encoding="utf-8"?>
<!-- Generator: Adobe Illustrator 22.0.1, SVG Export Plug-In . SVG Version: 6.00 Build 0)  -->
<svg version="1.1" id="Layer_1" xmlns="http://www.w3.org/2000/svg" xmlns:xlink="http://www.w3.org/1999/xlink" x="0px" y="0px"
	 viewBox="0 0 500 500" style="enable-background:new 0 0 500 500;" xml:space="preserve">
<style type="text/css">
	.st0{fill:none;stroke:#8F8F8F;stroke-width:2.8;stroke-miterlimit:10;}
</style>
<g>
	<path class="st0" d="M494.6,118.1c0-0.5,0.4-1,0.4-1.6L345.5,252.8l149.4,131.9c0.1-0.9-0.2-1.9-0.2-2.9L494.6,118.1L494.6,118.1z"
		/>
	<path class="st0" d="M322.6,273.8l-61,55.6c-3.1,2.8-7.1,4.2-11.1,4.2c-3.9,0-7.8-1.3-10.9-4.1l-60.9-53.7L28.4,412.9
		c3.7,1.2,7.6,2.2,11.7,2.2h420.8c6.1,0,11.8-1.8,16.8-4.4L322.6,273.8z"/>
	<path class="st0" d="M250.4,297.7L478.6,89.7c-5.2-2.9-11.2-4.9-17.6-4.9H40.1C31.7,84.9,24,88,18,92.7L250.4,297.7z"/>
	<path class="st0" d="M5,123.2v258.7c0,3,0.7,5.8,1.5,8.6L155,255.2L5,123.2z"/>
</g>
</svg>
