<?xml version="1.0" encoding="utf-8"?>
<!-- Generator: Adobe Illustrator 22.0.1, SVG Export Plug-In . SVG Version: 6.00 Build 0)  -->
<svg version="1.1" id="Layer_1" xmlns="http://www.w3.org/2000/svg" xmlns:xlink="http://www.w3.org/1999/xlink" x="0px" y="0px"
	 viewBox="0 0 500 500" style="enable-background:new 0 0 500 500;" xml:space="preserve">
<style type="text/css">
	.st0{fill:none;stroke:#6E6F72;stroke-width:2.8;stroke-linecap:round;stroke-miterlimit:10;}
</style>
<g>
	<path class="st0" d="M161.3,220.4c-1.4-0.6-2.8-1.3-4.1-2c-15.9-8-29.7-19.6-40.2-33.8c-13.9-18.7-22.1-41.9-22.1-67
		c0-44.1,25.3-82.3,62.2-100.7c1.4-0.7,2.8-1.3,4.1-2C175.4,8.5,191.1,5,207.5,5c19.8,0,38.5,5.1,54.7,14.1
		c11,6.1,20.8,14,29.1,23.3c17.9,19.9,28.8,46.3,28.8,75.2c0,25.1-8.2,48.3-22.1,67"/>
	<path class="st0" d="M157.2,169c-13.3-13.1-21.6-31.2-21.6-51.4s8.3-38.3,21.6-51.4c1.3-1.3,2.7-2.6,4.1-3.8
		c12.5-10.5,28.6-16.8,46.2-16.8c21.9,0,41.5,9.8,54.7,25.2c10.8,12.6,17.3,28.9,17.3,46.8s-6.5,34.2-17.3,46.8"/>
	<path class="st0" d="M173.5,340.2v-52.4v-29.4V129.3c0-19.4,15.7-35,35-35c9.7,0,18.4,3.9,24.8,10.3c6.3,6.3,10.3,15.1,10.3,24.8
		v129.2"/>
	<path class="st0" d="M244,214.4c0-13.7,11.2-24.8,25-24.8c6.9,0,13.2,2.8,17.7,7.3c0.1,0.1,0.3,0.3,0.4,0.4c4.3,4.4,7,10.5,7,17.2
		v12.5v46.6"/>
	<path class="st0" d="M244,224.1"/>
	<path class="st0" d="M244,224.1"/>
	<line class="st0" x1="346.8" y1="256.9" x2="346.8" y2="289.4"/>
	<path class="st0" d="M294.7,226.9c2.5-12.1,13.1-21.1,25.8-21.1c7.3,0,13.9,3,18.6,7.8c4.8,4.8,7.7,11.5,7.7,18.8v24.4"/>
	<path class="st0" d="M346.8,256.9c0-14.7,11.9-26.6,26.6-26.6c7.4,0,15.8,3.3,22.3,8.4c6.6,5.1,11.3,12.1,11.3,19.4
		c0,0,2,24.9,2.2,50.2v0c0.2,18.1-0.6,36.4-3.5,46c-9.5,30.7-24.4,104.8-24.9,140.7c0,0-0.1,0-0.3,0"/>
	<line class="st0" x1="346.8" y1="289.4" x2="346.8" y2="256.9"/>
	<path class="st0" d="M380.9,495h-178c0,0-4.6-22.2-7.5-32.3c-2.9-10.4-26.4-33-49.5-68.5c-25.5-39.2-50-86-54.9-114.7
		c-1.6-9.4,1.3-24.9,14.7-30.1c35.3-13.9,67.7,38.5,67.7,38.5"/>
</g>
</svg>
