<?xml version="1.0" encoding="utf-8"?>
<!-- Generator: Adobe Illustrator 22.0.1, SVG Export Plug-In . SVG Version: 6.00 Build 0)  -->
<svg version="1.1" id="Layer_1" xmlns="http://www.w3.org/2000/svg" xmlns:xlink="http://www.w3.org/1999/xlink" x="0px" y="0px"
	 viewBox="0 0 500 500" style="enable-background:new 0 0 500 500;" xml:space="preserve">
<style type="text/css">
	.st0{fill:none;stroke:#6E6F72;stroke-width:2.8;stroke-miterlimit:10;}
</style>
<g>
	<g>
		<path class="st0" d="M342.3,448.2c-31.7,16.5-67.7,25.8-106,25.8C109.7,474,7,371.4,7,244.7C7,118,109.7,15.3,236.3,15.3
			c126.7,0,229.4,102.7,229.4,229.4c0,16.3-1.7,32.1-5,47.5"/>
		<path class="st0" d="M451.8,323.5L451.8,323.5c-0.1,0.5-0.3,0.9-0.5,1.3v0.1"/>
		<g>
			<circle class="st0" cx="236.4" cy="173.1" r="84.5"/>
			<path class="st0" d="M93.2,400.7c0-79,64.1-143.1,143.1-143.1c38.7,0,73.8,15.3,99.6,40.4"/>
		</g>
	</g>
	<path class="st0" d="M493,382.1v-21.4l-29.7-6.7c-2.2-10.7-6.4-20.6-12.2-29.4l16.2-25.8l-15.1-15.1l-25.8,16.2
		c-8.8-5.8-18.6-9.9-29.3-12.2l-6.8-30.2H369l-6.8,30.2c-10.6,2.2-20.5,6.4-29.3,12.2l-25.8-16.2L292,298.8l16.2,25.8
		c-5.8,8.8-9.9,18.7-12.2,29.3l-30.2,6.8v21.4l30.2,6.8c2.2,10.6,6.4,20.4,12.1,29.2l-16.5,26.2l15.1,15.1l26.2-16.5
		c8.8,5.7,18.7,9.9,29.3,12.1l6.7,29.7h21.4l6.7-29.7c10.6-2.2,20.5-6.4,29.3-12.1l26.2,16.5l15.1-15.1l-16.5-26.2
		c5.7-8.8,9.9-18.7,12.1-29.3L493,382.1z M379.7,425.3c-29.8,0-53.9-24.1-53.9-53.9c0-29.8,24.1-53.9,53.9-53.9
		c29.8,0,53.9,24.1,53.9,53.9C433.6,401.2,409.5,425.3,379.7,425.3z"/>
</g>
</svg>
