<?xml version="1.0" encoding="utf-8"?>
<!-- Generator: Adobe Illustrator 22.0.1, SVG Export Plug-In . SVG Version: 6.00 Build 0)  -->
<svg version="1.1" id="Layer_1" xmlns="http://www.w3.org/2000/svg" xmlns:xlink="http://www.w3.org/1999/xlink" x="0px" y="0px"
	 viewBox="0 0 500 500" style="enable-background:new 0 0 500 500;" xml:space="preserve">
<style type="text/css">
	.st0{fill:none;stroke:#6E6F72;stroke-width:2.8;stroke-linejoin:round;stroke-miterlimit:10;}
	.st1{fill:#FFFFFF;stroke:#6E6F72;stroke-width:2.8;stroke-linejoin:round;stroke-miterlimit:10;}
</style>
<path class="st0" d="M249.3,496.7C234.5,490.2,61,418.2,58.5,252.5C57.7,200.5,57.9,57,57.9,57S151.4,58,250,3
	c98.6,55,192.2,53.9,192.2,53.9s0.2,143.3-0.6,195.4C439,418.1,265.3,490.2,250.7,496.6c-0.3,0.1-0.5,0.3-0.7,0.3h-0.1l0,0
	C249.7,496.9,249.5,496.8,249.3,496.7z"/>
<g>
	<path class="st1" d="M340.7,216.8h-29.9v-29.1c0-33.5-27.3-60.8-60.8-60.8s-60.8,27.3-60.8,60.8v29.1h-29.9c-1.2,0-2.2,1-2.2,2.2
		v151.9c0,1.2,1,2.2,2.2,2.2h181.3c1.2,0,2.2-1,2.2-2.2V219C342.8,217.8,341.9,216.8,340.7,216.8z M206.6,216.8v-29.1
		c0-23.9,19.5-43.4,43.4-43.4c11.9,0,22.8,4.9,30.6,12.7c7.9,7.9,12.7,18.7,12.7,30.6v29.1h-86.7V216.8z"/>
	<path class="st0" d="M280.1,284.5c0,12.5-7.6,23.2-18.5,27.8v23.4c0,6.4-5.2,11.5-11.5,11.5s-11.5-5.2-11.5-11.5v-23.4
		c-10.9-4.5-18.5-15.2-18.5-27.8c0-16.6,13.5-30.1,30.1-30.1C266.6,254.4,280.1,267.9,280.1,284.5z"/>
</g>
</svg>
