<?xml version="1.0" encoding="utf-8"?>
<!-- Generator: Adobe Illustrator 22.0.1, SVG Export Plug-In . SVG Version: 6.00 Build 0)  -->
<svg version="1.1" id="Layer_1" xmlns="http://www.w3.org/2000/svg" xmlns:xlink="http://www.w3.org/1999/xlink" x="0px" y="0px"
	 viewBox="0 0 500 500" style="enable-background:new 0 0 500 500;" xml:space="preserve">
<style type="text/css">
	.st0{fill:none;stroke:#6E6F72;stroke-width:2.8;stroke-miterlimit:10;}
</style>
<g>
	<path class="st0" d="M468,343.6c-31,24.6-115.7,42.3-215.4,42.3c-105.9,0-195-19.9-220.6-47v94.5c0,33.8,97.6,61.2,218,61.2
		s218-27.4,218-61.2V343.6z"/>
	<path class="st0" d="M468,224.1v103.8c-30.9,24.6-115.7,42.3-215.4,42.3c-105.9,0-195-19.9-220.6-46.9V219.4
		c25.6,27,114.7,47,220.6,47C352.3,266.4,437,248.7,468,224.1z"/>
	<path class="st0" d="M32,67.5c0-33.8,97.6-61.2,218-61.2s218,27.4,218,61.2"/>
	<g>
		<circle class="st0" cx="217.7" cy="186.2" r="12.1"/>
		<circle class="st0" cx="250" cy="186.2" r="12.1"/>
		<circle class="st0" cx="282.3" cy="186.2" r="12.1"/>
	</g>
	<g>
		<circle class="st0" cx="217.7" cy="316.9" r="12.1"/>
		<circle class="st0" cx="250" cy="316.9" r="12.1"/>
		<circle class="st0" cx="282.3" cy="316.9" r="12.1"/>
	</g>
	<g>
		<circle class="st0" cx="217.7" cy="434.7" r="12.1"/>
		<circle class="st0" cx="250" cy="434.7" r="12.1"/>
		<circle class="st0" cx="282.3" cy="434.7" r="12.1"/>
	</g>
	<path class="st0" d="M32,203.7V66.5c0,0.3,0,0.6,0,0.8c0,0.2,0,0.4,0,0.6c0,0.3,0,0.5,0.1,0.8c0,0.3,0.1,0.5,0.1,0.8
		c0,0.1,0,0.1,0,0.2c0,0.3,0.1,0.5,0.2,0.8c0,0.2,0.1,0.4,0.2,0.6c0.2,0.7,0.4,1.3,0.6,2c0.1,0.3,0.2,0.6,0.4,0.9
		c0.1,0.4,0.3,0.7,0.5,1.1c0.3,0.5,0.5,1,0.8,1.5c0.7,1.3,1.6,2.5,2.6,3.7c0.2,0.2,0.4,0.5,0.6,0.7c0.6,0.7,1.3,1.5,2.1,2.2
		c0.2,0.2,0.5,0.5,0.7,0.7c2.1,1.9,4.4,3.8,7.1,5.7c0.3,0.2,0.7,0.5,1,0.7c0.7,0.5,1.4,0.9,2.1,1.4c0.4,0.2,0.7,0.5,1.1,0.7
		c0.4,0.2,0.8,0.4,1.1,0.7c0.4,0.2,0.8,0.5,1.2,0.7c2,1.1,4,2.2,6.2,3.3c0.9,0.4,1.8,0.8,2.7,1.3c0.6,0.3,1.3,0.6,1.9,0.9
		s1.1,0.5,1.7,0.8c4.7,2,9.9,4,15.4,5.9c0.5,0.2,1,0.3,1.5,0.5c4.3,1.4,8.8,2.8,13.6,4.1c1.1,0.3,2.2,0.6,3.3,0.9
		c0.5,0.1,1,0.3,1.4,0.4c2.9,0.8,5.9,1.5,8.9,2.2c1,0.2,2.1,0.5,3.2,0.7c3.7,0.8,7.5,1.6,11.4,2.4c0.7,0.1,1.4,0.3,2.2,0.4
		c0.7,0.1,1.4,0.3,2.2,0.4c1,0.2,2,0.4,3,0.5c1.1,0.2,2.1,0.4,3.2,0.6c1.6,0.3,3.3,0.6,5,0.8c4,0.6,8,1.2,12.2,1.8
		c1.1,0.2,2.3,0.3,3.5,0.5c1.1,0.1,2.1,0.3,3.2,0.4c0.4,0.1,0.8,0.1,1.2,0.1c1.5,0.2,2.9,0.4,4.4,0.5c1.4,0.2,2.8,0.3,4.2,0.5
		c3.3,0.4,6.6,0.7,10,1c4.1,0.4,8.2,0.7,12.4,1.1c0.1,0,0.3,0,0.4,0c1.4,0.1,2.8,0.2,4.2,0.3c1.6,0.1,3.2,0.2,4.7,0.3
		c4.6,0.3,9.3,0.5,14,0.7c0.3,0,0.6,0,0.9,0c1.3,0.1,2.6,0.1,3.9,0.2c1.6,0.1,3.2,0.1,4.8,0.2c2.6,0.1,5.2,0.2,7.7,0.2
		c2.4,0.1,4.7,0.1,7.1,0.1c1,0,2,0,3,0c0.4,0,0.7,0,1.1,0c0.9,0,1.9,0,2.8,0c0.9,0,1.9,0,2.8,0s1.9,0,2.8,0c0.9,0,1.9,0,2.8,0
		c0.3,0,0.6,0,0.9,0c1.1,0,2.2,0,3.2,0c5.1-0.1,10.2-0.2,15.2-0.3c1.3,0,2.7-0.1,4-0.1c0.6,0,1.3-0.1,1.9-0.1
		c1.7-0.1,3.3-0.1,4.9-0.2c1-0.1,2-0.1,3.1-0.1c1.4-0.1,2.9-0.1,4.3-0.2c1.5-0.1,3-0.2,4.4-0.3c1.9-0.1,3.7-0.2,5.6-0.4
		c4.3-0.3,8.6-0.6,12.8-1c1.3-0.1,2.5-0.2,3.8-0.3c1.7-0.2,3.4-0.3,5.1-0.5s3.3-0.3,5-0.5c2.9-0.3,5.8-0.7,8.6-1
		c2.8-0.3,5.6-0.7,8.4-1.1c1.6-0.2,3.1-0.4,4.7-0.7c0.8-0.1,1.6-0.2,2.4-0.3c1.5-0.2,3.1-0.5,4.6-0.7c1.5-0.3,3-0.5,4.6-0.8
		c1.5-0.3,3-0.5,4.4-0.8c1.5-0.3,2.9-0.5,4.4-0.8c0.7-0.1,1.4-0.3,2.2-0.4c0.7-0.1,1.4-0.3,2.1-0.4s1.4-0.3,2.1-0.4s1.4-0.3,2.1-0.4
		s1.4-0.3,2.1-0.4c1.4-0.3,2.8-0.6,4.1-0.9c1.4-0.3,2.7-0.6,4-0.9c0.7-0.1,1.3-0.3,2-0.5s1.3-0.3,2-0.5c0.5-0.1,1.1-0.3,1.6-0.4
		c2.1-0.5,4.1-1.1,6.1-1.6c1.2-0.3,2.5-0.7,3.7-1c0.6-0.2,1.2-0.3,1.8-0.5c1.8-0.5,3.6-1.1,5.3-1.6l0,0c1.2-0.4,2.3-0.7,3.4-1.1
		c3.9-1.3,7.7-2.7,11.2-4.1c0.5-0.2,1-0.4,1.5-0.6c1.5-0.6,3-1.2,4.4-1.8c0.9-0.4,1.9-0.8,2.8-1.2c0.9-0.4,1.8-0.8,2.7-1.3
		c4.4-2.1,8.3-4.4,11.8-6.6c1-0.7,2-1.4,3-2.1c0.3-0.2,0.6-0.5,0.9-0.7c0.6-0.5,1.2-0.9,1.8-1.4c1.1-1,2.2-1.9,3.2-2.9
		c2-1.9,3.6-3.9,4.9-5.9c0.2-0.4,0.5-0.8,0.7-1.1c0.2-0.4,0.4-0.8,0.6-1.1c0.3-0.5,0.5-1,0.7-1.5c0.3-0.7,0.5-1.3,0.7-2
		c0.1-0.2,0.1-0.4,0.1-0.6c0.2-0.6,0.3-1.3,0.4-1.9c0-0.3,0.1-0.5,0.1-0.8c0-0.2,0-0.3,0-0.5s0-0.3,0-0.5c0-0.3,0-0.5,0-0.8v141.9
		c-30.9,24.6-115.7,42.3-215.4,42.3C146.7,250.6,57.6,230.7,32,203.7z"/>
</g>
</svg>
