<?xml version="1.0" encoding="utf-8"?>
<!-- Generator: Adobe Illustrator 22.0.1, SVG Export Plug-In . SVG Version: 6.00 Build 0)  -->
<svg version="1.1" id="Layer_1" xmlns="http://www.w3.org/2000/svg" xmlns:xlink="http://www.w3.org/1999/xlink" x="0px" y="0px"
	 viewBox="0 0 500 500" style="enable-background:new 0 0 500 500;" xml:space="preserve">
<style type="text/css">
	.st0{fill:none;stroke:#6E6F72;stroke-width:2.8;stroke-linejoin:round;stroke-miterlimit:10;}
	.st1{fill:none;stroke:#6E6F72;stroke-width:2.8;stroke-linecap:round;stroke-linejoin:round;stroke-miterlimit:10;}
</style>
<g>
	<g>
		<path class="st0" d="M327.4,221.7h-25.5v-24.8c0-28.6-23.3-51.9-51.9-51.9s-51.9,23.3-51.9,51.9v24.8h-25.5c-1,0-1.9,0.9-1.9,1.9
			v129.6c0,1,0.9,1.9,1.9,1.9h154.7c1,0,1.9-0.9,1.9-1.9V223.5C329.2,222.5,328.5,221.7,327.4,221.7z M213,221.7v-24.8
			c0-20.4,16.6-37,37-37c10.2,0,19.5,4.2,26.1,10.8c6.7,6.7,10.8,16,10.8,26.1v24.8L213,221.7L213,221.7z"/>
		<path class="st0" d="M275.7,279.4c0,10.7-6.5,19.8-15.8,23.7v20c0,5.5-4.4,9.8-9.8,9.8s-9.8-4.4-9.8-9.8v-20
			c-9.3-3.8-15.8-13-15.8-23.7c0-14.2,11.5-25.7,25.7-25.7C264.2,253.8,275.7,265.3,275.7,279.4z"/>
	</g>
	<g>
		<path class="st1" d="M37.2,216.9c16-104.2,105.8-183.8,214.2-183.8c113,0,205.8,86.6,216,197.1"/>
		<path class="st1" d="M35.4,269.7c10.1,110.6,102.9,197.1,216,197.1c108.1,0,197.5-79.1,214-182.5"/>
		<g>
			<line class="st1" x1="15.6" y1="194.2" x2="35.2" y2="217.9"/>
			<line class="st1" x1="73" y1="201.2" x2="35.2" y2="217.9"/>
		</g>
		<g>
			<line class="st1" x1="485.8" y1="305" x2="466.3" y2="281.4"/>
			<line class="st1" x1="428.5" y1="298" x2="466.3" y2="281.4"/>
		</g>
	</g>
</g>
</svg>
