<?xml version="1.0" encoding="utf-8"?>
<!-- Generator: Adobe Illustrator 22.0.1, SVG Export Plug-In . SVG Version: 6.00 Build 0)  -->
<svg version="1.1" id="Layer_1" xmlns="http://www.w3.org/2000/svg" xmlns:xlink="http://www.w3.org/1999/xlink" x="0px" y="0px"
	 viewBox="0 0 57.7 57.7" style="enable-background:new 0 0 57.7 57.7;" xml:space="preserve">
<style type="text/css">
	.st0{fill:#FFFFFF;}
	.st1{fill:#4D7FB8;}
</style>
<g>
	<ellipse class="st0" cx="28.8" cy="28.8" rx="28.8" ry="28.8"/>
	<path class="st1" d="M55,17.4c-5.6,0-10.2,4.6-10.2,10.2v15.5h-5.7V27.7c0-2.7-1.1-5.3-3-7.2c-1.9-1.9-4.5-3-7.2-3
		c-5.6,0-10.2,4.6-10.2,10.2v15.5h-5.7V27.7c0-8.8,7.2-16,16-16c4.3,0,8.3,1.7,11.3,4.7c0.7,0.7,1.3,1.4,1.8,2.2
		c2.4-3.4,6-5.8,10.3-6.6C47,4.7,38.5,0,28.8,0C12.9,0,0,12.9,0,28.8s12.9,28.8,28.8,28.8s28.8-12.9,28.8-28.8
		c0-4.1-0.8-7.9-2.3-11.4C55.2,17.4,55.1,17.4,55,17.4z"/>
</g>
</svg>
