<?xml version="1.0" encoding="utf-8"?>
<!-- Generator: Adobe Illustrator 22.0.1, SVG Export Plug-In . SVG Version: 6.00 Build 0)  -->
<svg version="1.1" id="Layer_1" xmlns="http://www.w3.org/2000/svg" xmlns:xlink="http://www.w3.org/1999/xlink" x="0px" y="0px"
	 viewBox="0 0 100 100" style="enable-background:new 0 0 100 100;" xml:space="preserve">
<style type="text/css">
	.st0{fill:#F3F3F3;}
	.st1{fill:#4D7FB8;stroke:#4D7FB8;stroke-miterlimit:10;}
	.st2{fill:#4D7FB8;}
	.st3{fill:#F3F3F3;stroke:#F3F3F3;stroke-miterlimit:10;}
</style>
<path class="st0" d="M99.6,50c0,27.4-22.2,49.6-49.6,49.6S0.4,77.4,0.4,50S22.6,0.4,50,0.4S99.6,22.6,99.6,50"/>
<rect x="15.8" y="32.2" class="st1" width="68.5" height="3.3"/>
<g>
	<rect x="19.6" y="68.2" class="st2" width="61.5" height="3.5"/>
	<rect x="17.5" y="73.1" class="st2" width="65.7" height="5.4"/>
</g>
<g>
	<rect x="23.7" y="37.7" class="st2" width="7.7" height="29"/>
	<rect x="34.7" y="37.7" class="st2" width="7.7" height="29"/>
	<rect x="46.5" y="37.7" class="st2" width="7.7" height="29"/>
	<rect x="57.7" y="37.7" class="st2" width="7.7" height="29"/>
	<rect x="68.6" y="37.7" class="st2" width="7.7" height="29"/>
</g>
<polygon class="st2" points="16.6,30.4 49.9,21.8 83.2,30.4 "/>
<path class="st3" d="M49.9,27.7c-0.9,0-1.4-0.6-1.4-1.4c0-0.9,0.6-1.4,1.4-1.4c0.9,0,1.4,0.6,1.4,1.4C51.4,27,50.8,27.7,49.9,27.7"
	/>
</svg>
