<?xml version="1.0" encoding="utf-8"?>
<!-- Generator: Adobe Illustrator 22.0.1, SVG Export Plug-In . SVG Version: 6.00 Build 0)  -->
<svg version="1.1" id="Layer_1" xmlns="http://www.w3.org/2000/svg" xmlns:xlink="http://www.w3.org/1999/xlink" x="0px" y="0px"
	 viewBox="0 0 100 100" style="enable-background:new 0 0 100 100;" xml:space="preserve">
<style type="text/css">
	.st0{fill:#F3F3F3;}
	.st1{fill:#414142;}
	.st2{fill:#FFFFFF;stroke:#959595;stroke-width:0.4297;stroke-miterlimit:10;}
	.st3{fill:none;stroke:#959595;stroke-width:0.4297;stroke-miterlimit:10;}
	.st4{fill:none;stroke:#414142;stroke-width:3.3396;stroke-miterlimit:10;}
</style>
<g>
	<circle class="st0" cx="50" cy="50" r="49.6"/>
	<g id="Layer_2_1_">
		<g id="Layer_1-2">
			<path class="st1" d="M23.2,33.1h53.6c1.5,0,2.8,1.2,2.8,2.8v34.8c0,1.5-1.2,2.8-2.8,2.8H23.2c-1.5,0-2.8-1.2-2.8-2.8V35.9
				C20.4,34.4,21.7,33.1,23.2,33.1z"/>
			<path class="st2" d="M44.4,49.1h11.3c0.3,0,0.6,0.3,0.6,0.6V57c0,0.3-0.3,0.6-0.6,0.6H44.4c-0.3,0-0.6-0.3-0.6-0.6v-7.3
				C43.8,49.3,44,49.1,44.4,49.1z"/>
			<line class="st3" x1="79.6" y1="53.3" x2="56.2" y2="53.3"/>
			<line class="st3" x1="43.8" y1="53.3" x2="20.4" y2="53.3"/>
			<path class="st4" d="M36.2,33.1v-1.6c0-2.8,2.2-5,5-5h17.6c2.8,0,5,2.2,5,5v1.6"/>
		</g>
	</g>
</g>
</svg>
