<?xml version="1.0" encoding="utf-8"?>
<!-- Generator: Adobe Illustrator 22.0.1, SVG Export Plug-In . SVG Version: 6.00 Build 0)  -->
<svg version="1.1" id="Layer_1" xmlns="http://www.w3.org/2000/svg" xmlns:xlink="http://www.w3.org/1999/xlink" x="0px" y="0px"
	 viewBox="0 0 100 100" style="enable-background:new 0 0 100 100;" xml:space="preserve">
<style type="text/css">
	.st0{fill:#F3F3F3;}
	.st1{fill:#4D7FB8;}
</style>
<circle class="st0" cx="50" cy="50" r="49.6"/>
<g>
	<path class="st1" d="M56.8,53.8V57c0,0.6-0.5,1.1-1.1,1.1H44.4c-0.6,0-1.1-0.5-1.1-1.1v-3.2H20.4v16.9c0,1.6,1.3,2.8,2.8,2.8h53.6
		c1.6,0,2.8-1.3,2.8-2.8V53.8H56.8z"/>
	<path class="st1" d="M44.4,49.6c-0.1,0-0.1,0-0.1,0c0,0,0,0,0,0.1V57c0,0,0.1,0.1,0.1,0.1h11.3c0,0,0.1-0.1,0.1-0.1v-7.3
		c0,0-0.1-0.1-0.1-0.1H44.4z"/>
	<path class="st1" d="M43.3,52.8v-3.1c0-0.7,0.4-1.1,1.1-1.1h11.3c0.6,0,1.1,0.5,1.1,1.1v3.1h22.8V35.9c0-1.6-1.3-2.8-2.8-2.8H65.5
		V32c0-4-2.9-7.2-6.7-7.2H41.2c-3.7,0-6.7,3.2-6.7,7.2v1.1H23.2c-1.5,0-2.8,1.3-2.8,2.8v16.9H43.3z M37.9,32c0-2,1.5-3.6,3.3-3.6
		h17.6c1.9,0,3.3,1.6,3.3,3.6v1.1H37.9V32z"/>
</g>
</svg>
