<?xml version="1.0" encoding="utf-8"?>
<!-- Generator: Adobe Illustrator 22.0.1, SVG Export Plug-In . SVG Version: 6.00 Build 0)  -->
<svg version="1.1" id="Layer_1" xmlns="http://www.w3.org/2000/svg" xmlns:xlink="http://www.w3.org/1999/xlink" x="0px" y="0px"
	 viewBox="0 0 100 100" style="enable-background:new 0 0 100 100;" xml:space="preserve">
<style type="text/css">
	.st0{fill:#F3F3F3;}
	.st1{fill:#4D7FB8;}
	.st2{fill:#FFFFFF;}
</style>
<circle class="st0" cx="50" cy="50" r="49.6"/>
<path class="st1" d="M50.7,82.3c-17.7,0-32.1-14.4-32.1-32.1c0-17.7,14.4-32.1,32.1-32.1c17.7,0,32.1,14.4,32.1,32.1
	C82.8,67.9,68.4,82.3,50.7,82.3z"/>
<path class="st2" d="M61.5,55c-0.6-1.2-1.5-2.2-2.5-3c-1.1-0.8-2.2-1.5-3.5-2c-0.9-0.3-1.7-0.7-2.6-1V36.3c1,0.2,2,0.5,2.9,1
	c1.3,0.7,2.4,1.7,3.5,3l2.6-2.6c-1.2-1.5-2.6-2.7-4.4-3.6c-1.4-0.7-3-1.1-4.6-1.2v-4.8h-2.8v4.8c-1.5,0.1-2.8,0.5-4,1
	c-1.5,0.8-2.8,1.8-3.7,3.2c-0.9,1.3-1.4,3-1.4,4.9c0,1.8,0.3,3.3,0.9,4.5c0.6,1.2,1.5,2.2,2.5,2.9c1,0.8,2.2,1.4,3.4,1.9
	c0.8,0.3,1.5,0.6,2.3,0.9v13.7c-1.8-0.1-3.3-0.5-4.6-1.3c-1.5-0.9-2.9-2.2-4.1-3.9l-2.6,2.6c1.5,1.9,3.2,3.4,5.1,4.4
	c1.7,0.9,3.9,1.4,6.2,1.5v4.7h2.8v-4.8c2.5-0.3,4.6-1,6.5-2.3c2.1-1.7,3.1-4,3.1-7.1C62.5,57.8,62.1,56.2,61.5,55z M48.2,47.1
	c-1-0.6-1.9-1.3-2.5-2.1c-0.7-0.8-1-1.9-1-3.2c0-1.8,0.7-3.2,1.9-4.2c0.9-0.7,2.1-1.1,3.5-1.3V48C49.4,47.7,48.8,47.4,48.2,47.1z
	 M56.3,64.3c-0.9,0.7-2.1,1.2-3.4,1.4V53.2c0.7,0.3,1.4,0.6,2,1c1,0.5,1.9,1.3,2.5,2.2c0.7,0.9,1,2.1,1,3.5
	C58.4,61.8,57.7,63.3,56.3,64.3z"/>
</svg>
