<?xml version="1.0" encoding="utf-8"?>
<!-- Generator: Adobe Illustrator 22.0.1, SVG Export Plug-In . SVG Version: 6.00 Build 0)  -->
<svg version="1.1" id="Layer_1" xmlns="http://www.w3.org/2000/svg" xmlns:xlink="http://www.w3.org/1999/xlink" x="0px" y="0px"
	 viewBox="0 0 100 100" style="enable-background:new 0 0 100 100;" xml:space="preserve">
<style type="text/css">
	.st0{fill:#F3F3F3;}
	.st1{fill:#4D7FB8;}
</style>
<g>
	<circle class="st0" cx="50" cy="50" r="49.6"/>
	<g>
		<path class="st1" d="M79,33.5c0-0.1,0-0.1,0-0.2L61.3,50.3L79,66.9c0-0.1,0-0.2,0-0.3V33.5L79,33.5z"/>
		<path class="st1" d="M58.6,52.9l-7.2,6.9c-0.3,0.4-0.8,0.6-1.3,0.6s-0.9-0.2-1.3-0.5l-7.2-6.7L23.8,70.4c0.4,0.1,0.9,0.3,1.4,0.3
			H75c0.7,0,1.4-0.2,2-0.5L58.6,52.9z"/>
		<path class="st1" d="M50,56l27-26.1c-0.6-0.3-1.4-0.6-2.1-0.6H25.2c-0.9,0-1.9,0.4-2.6,0.9L50,56z"/>
		<path class="st1" d="M21,34.1v32.4c0,0.4,0.1,0.7,0.2,1l17.6-17L21,34.1z"/>
	</g>
</g>
</svg>
