<?xml version="1.0" encoding="utf-8"?>
<!-- Generator: Adobe Illustrator 22.0.1, SVG Export Plug-In . SVG Version: 6.00 Build 0)  -->
<svg version="1.1" id="Layer_1" xmlns="http://www.w3.org/2000/svg" xmlns:xlink="http://www.w3.org/1999/xlink" x="0px" y="0px"
	 viewBox="0 0 100 100" style="enable-background:new 0 0 100 100;" xml:space="preserve">
<style type="text/css">
	.st0{fill:#F3F3F3;}
	.st1{fill:none;stroke:#414142;stroke-width:2.3576;stroke-linejoin:round;stroke-miterlimit:10;}
	.st2{fill:none;stroke:#414142;stroke-width:0.6736;stroke-miterlimit:10;}
	.st3{fill:none;stroke:#414142;stroke-width:0.6736;stroke-linecap:round;stroke-miterlimit:10;}
	.st4{fill:#414142;stroke:#414142;stroke-width:1.3205;stroke-linecap:round;stroke-linejoin:round;stroke-miterlimit:10;}
</style>
<g>
	<circle class="st0" cx="50" cy="50" r="49.6"/>
	<g>
		<line class="st1" x1="30.7" y1="45.6" x2="30.7" y2="45.6"/>
		<path class="st2" d="M33.7,55.5l-4.8,6.1c-0.5,0.6-1.4,0.7-2.1,0.2l-1.7-1.3c-0.6-0.5-0.8-1.4-0.2-2.1l1.9-2.4l2.9-3.7
			c0.5-0.6,1.4-0.8,2.1-0.2l1.7,1.3C34.1,53.9,34.2,54.9,33.7,55.5z"/>
		<line class="st2" x1="52.6" y1="68.7" x2="46.6" y2="64.8"/>
		<path class="st3" d="M49.6,60.6l7.2,4.6c0.7,0.5,0.9,1.4,0.5,2.2l-1.1,1.7c-0.5,0.7-1.4,0.9-2.2,0.5l-1.4-0.9"/>
		<path class="st3" d="M52.7,56.2l8.3,5.3c0.9,0.6,1.2,1.8,0.6,2.7l-0.8,1.3c-0.6,0.9-1.8,1.2-2.7,0.6l-8.5-5.4"/>
		<path class="st2" d="M36.1,53.6c0.4,0,0.8,0.1,1.1,0.4l1.3,1c0.8,0.6,0.9,1.7,0.3,2.5l-0.9,1.2l-6,7.7c-0.6,0.8-1.7,0.9-2.5,0.3
			l-1.3-1c-0.8-0.6-0.9-1.7-0.3-2.5l6-7.6l1-1.2C35.1,53.8,35.6,53.6,36.1,53.6z"/>
		<path class="st2" d="M37.9,58.7c0.5-0.7,1.5-0.8,2.2-0.3l1.1,0.9c0.7,0.5,0.8,1.5,0.3,2.2l-1,1.3l-5,6.4c-0.5,0.7-1.5,0.8-2.2,0.3
			l-1.1-0.9c-0.7-0.5-0.8-1.5-0.3-2.2L37.9,58.7z"/>
		<path class="st2" d="M44.9,64.9c0,0.4-0.1,0.8-0.3,1.1l-2,2.6l-3,3.9c-0.5,0.7-1.5,0.8-2.2,0.3l-1.6-1.2c-0.7-0.5-0.8-1.5-0.3-2.2
			l5-6.4c0.5-0.7,1.5-0.8,2.2-0.3l1.6,1.2C44.6,64.1,44.8,64.5,44.9,64.9z"/>
		<polyline class="st2" points="22.1,48.8 23.8,49.9 26.8,56 		"/>
		<path class="st3" d="M52.7,56.1l8.3,5.4l0.3,0.2c0,0,2.2,1.4,3.3-0.1c1-1.4-0.2-3.5-0.9-4.4c-0.2-0.3-0.4-0.5-0.4-0.5l-7.3-5.4
			L47,44.5c-0.9,0.6-6,7.4-9,5.6c-0.3-0.2-0.7-0.5-0.9-0.9c-0.8-1.3,2.4-4.9,2.4-4.9l5.3-5.3c0,0,0,0,0,0c-0.5-0.1-6.5-1-8.2-1
			c-1.3,0-4.7-1.3-6.2-2"/>
		<path class="st2" d="M52.6,68.7c0.1,0.4,0.3,1.2,0.1,2.1c-0.3,1.5-2,1.2-2,1.2l-4.4-1.2l-3.8-2.3"/>
		<line class="st3" x1="52.6" y1="68.7" x2="52.6" y2="68.7"/>
		<path class="st2" d="M44.8,39C44.8,39,44.8,39,44.8,39c0.3-0.2,1.7-1.3,4.3-2.1c0.2-0.1,17.6,3,17.6,3l2.9-1.3"/>
		<polyline class="st2" points="63.8,57.1 63.8,57.1 66.9,52.7 73.7,50.6 		"/>
		<polygon class="st4" points="22.1,48.8 21.7,49.4 12.1,43.8 19.8,27 30.8,35.4 30.4,36 30.2,36.3 		"/>
		<polygon class="st4" points="69.6,38.7 69.2,37.4 79.6,33.3 87.9,49.8 74.5,53.1 74.2,52.2 73.7,50.6 		"/>
	</g>
</g>
</svg>
