<?xml version="1.0" encoding="utf-8"?>
<!-- Generator: Adobe Illustrator 22.0.1, SVG Export Plug-In . SVG Version: 6.00 Build 0)  -->
<svg version="1.1" id="Layer_1" xmlns="http://www.w3.org/2000/svg" xmlns:xlink="http://www.w3.org/1999/xlink" x="0px" y="0px"
	 viewBox="0 0 100 100" style="enable-background:new 0 0 100 100;" xml:space="preserve">
<style type="text/css">
	.st0{fill:#F3F3F3;}
	.st1{fill:#414142;}
	.st2{fill:none;stroke:#414142;stroke-width:1.6756;stroke-miterlimit:10;}
</style>
<g>
	<circle class="st0" cx="50" cy="50" r="49.6"/>
	<g>
		<path class="st1" d="M41.3,33.7l27.3-10.1c0.6-0.2,1.3,0.2,1.3,0.9v9.9v7.1v11.1v7.7v9.4c0,0.7-0.7,1.2-1.3,0.9l-27.3-9.9"/>
		<path class="st1" d="M40.2,60.3H23.9c-0.7,0-1.2-0.5-1.2-1.2v-6.5V41.5v-5.9c0-0.7,0.5-1.2,1.2-1.2h16.3"/>
		<path class="st1" d="M72.1,38.7h4.4c4.5,0,8.1,3.6,8.1,8.1v0.7c0,4.5-3.7,8.1-8.1,8.1h-4.4"/>
		<path class="st2" d="M36.7,59.3l4,11.5c0.8,2.4-0.4,4.9-2.8,5.7c-2.4,0.8-4.9-0.4-5.7-2.8l-5-14.4"/>
	</g>
</g>
</svg>
