<?xml version="1.0" encoding="utf-8"?>
<!-- Generator: Adobe Illustrator 22.0.1, SVG Export Plug-In . SVG Version: 6.00 Build 0)  -->
<svg version="1.1" id="Layer_1" xmlns="http://www.w3.org/2000/svg" xmlns:xlink="http://www.w3.org/1999/xlink" x="0px" y="0px"
	 viewBox="0 0 100 100" style="enable-background:new 0 0 100 100;" xml:space="preserve">
<style type="text/css">
	.st0{fill:#F3F3F3;}
	.st1{fill:none;stroke:#4D7FB8;stroke-miterlimit:10;}
	.st2{fill:#4D7FB8;stroke:#F3F3F3;stroke-width:0.5;stroke-miterlimit:10;}
</style>
<g>
	<circle class="st0" cx="50" cy="50" r="49.6"/>
</g>
<g>
	<g id="XMLID_8_">
		<g>
			<path class="st1" d="M28.6,71.9c-3.5-3.1-6.4-6.8-8.3-11.1c-1.8-4.1-2.9-8.6-2.9-13.4c0-9.7,4.3-18.5,11.1-24.4
				c5.7-5,13.2-8,21.4-8s15.7,3,21.4,8c6.8,5.9,11.1,14.7,11.1,24.4c0,4.8-1,9.3-2.9,13.4c-1.9,4.3-4.8,8.1-8.3,11.1"/>
			<path class="st1" d="M28.5,22.9c2.1,1.9,4.5,3.5,7,4.7c0,0,0.1,0,0.1,0.1c4.3,2.1,9.1,3.3,14.2,3.3c5.1,0,9.9-1.2,14.2-3.3
				c0.1,0,0.1-0.1,0.1-0.1c2.6-1.3,4.9-2.8,7-4.7"/>
			<path class="st1" d="M71.1,71.9c-1.9-1.6-3.9-3-6.1-4.2c-0.3-0.1-0.6-0.3-0.9-0.4c0,0,0,0-0.1,0c-4.3-2.1-9.1-3.3-14.2-3.3
				s-9.9,1.2-14.2,3.3c0,0,0,0-0.1,0c-0.3,0.1-0.6,0.3-0.9,0.4c-2.2,1.2-4.2,2.6-6.1,4.2"/>
			<polyline class="st1" points="49.8,71.7 49.8,68.6 49.8,67.9 49.8,52.5 49.8,33.5 49.8,15.5 49.8,15 49.8,14.9 			"/>
			<polyline class="st1" points="17.4,47.4 31.8,47.4 31.8,47.4 49.8,47.4 67.9,47.4 67.9,47.4 82.3,47.4 			"/>
			<path class="st1" d="M31.8,47.5c0,0,0-0.1,0-0.1c0,0,0,0,0,0c0-7.4,1.4-14.2,3.7-19.7C38.8,19.9,44,15,49.8,15s11,5,14.3,12.7
				c2.3,5.5,3.7,12.3,3.7,19.7c0,0,0,0,0,0c0,0,0,0.1,0,0.1"/>
		</g>
	</g>
	<g>
		<path class="st2" d="M26.3,54.9c-2,0.5-7.3,1.1-7.6,3.1c-0.7,4.1-0.8,16.3,0,21.2c0.2,1.2,3.1,1.4,4.2,2.2c1,0.7-0.4,2.1,3.4,3.3
			c2.2,0.7,6.9,0.5,9.1,0c1.9-0.5,2.5-2.3,2.6-3.3c0.3-2.3,0.5-7.7,0.5-7.7l2.9,2.7c0,0,5.3,2.8,6.9,3.4c1.5,0.5-3.2-3,1.2-6.3
			c0.3-0.2-4.8-2.8-4.8-2.8s-1.8-9.2-2.5-12.7c-0.3-1.3-6.4-3.3-6.9-2.8c-1.1,1.2-2,5.4-3.2,7.6l-0.4-4.7l0.5-1.4L32,55.6l-2.4-0.1
			l-0.4,1.1l0.7,1.7L29.4,63C27.8,60.6,28.2,54.4,26.3,54.9L26.3,54.9z"/>
		<circle class="st2" cx="30.8" cy="48.1" r="5.2"/>
		<path class="st2" d="M82.1,57.9c-0.3-2.1-5.6-2.7-7.6-3.1c-1.9-0.4-1.6,5.7-3.1,8.1L70.8,58l0.7-1.7l-0.4-1l-2.4,0.1l-0.2,0.9
			l0.5,1.4l-0.5,4.7c-1.1-2.2-2.1-6.4-3.1-7.6c-0.5-0.5-6.6,1.5-6.9,2.8C57.8,61.3,56,70.5,56,70.5s-4.4,2.6-4.8,2.8
			c-5,2.8-1.5,7.5-0.8,7.3c1.6-0.5,8.9-4.3,8.9-4.3l2.9-2.7c0,0,0.2,5.4,0.5,7.7c0.1,1.1,0.8,2.8,2.6,3.3c2.2,0.5,6.9,0.7,9.1,0
			c3.8-1.2,2.4-2.6,3.4-3.3c1.1-0.8,4.1-1,4.2-2.2C82.8,74.2,82.7,62,82.1,57.9z"/>
		<circle class="st2" cx="70" cy="48" r="5.2"/>
	</g>
</g>
</svg>
