<?xml version="1.0" encoding="utf-8"?>
<!-- Generator: Adobe Illustrator 22.0.1, SVG Export Plug-In . SVG Version: 6.00 Build 0)  -->
<svg version="1.1" id="Layer_1" xmlns="http://www.w3.org/2000/svg" xmlns:xlink="http://www.w3.org/1999/xlink" x="0px" y="0px"
	 viewBox="0 0 100 100" style="enable-background:new 0 0 100 100;" xml:space="preserve">
<style type="text/css">
	.st0{fill:#F3F3F3;}
	.st1{fill:#4D7FB8;}
	.st2{fill:none;stroke:#969696;stroke-width:0.267;stroke-miterlimit:10;}
</style>
<circle class="st0" cx="50" cy="50" r="49.6"/>
<g>
	<path class="st1" d="M78,41.2l-8.3-10.1H56.4l2.8,10c0.3,1.2,2,2.1,3.9,2.1h10.4V75h-13V52.5h-23V75h-11V43.2h11.8
		c1,0,1.9-0.5,2.1-1.1l3-10.9l-2.7,9.9c-0.3,1.1,1,2.1,2.7,2.1H56c2,0,3.4-1.1,3.1-2.4l-2.7-9.7H29.8l-7.7,10.1
		c-0.7,0.9,0.3,2,1.9,2h0.7v33.6h50.6V43.2h0.9C77.7,43.2,78.7,42.1,78,41.2z"/>
	<path class="st2" d="M69.6,29"/>
	<path class="st2" d="M29.8,29"/>
	<rect x="29.8" y="24.1" class="st1" width="39.5" height="5.5"/>
</g>
</svg>
