<?xml version="1.0" encoding="utf-8"?>
<!-- Generator: Adobe Illustrator 22.0.1, SVG Export Plug-In . SVG Version: 6.00 Build 0)  -->
<svg version="1.1" id="Layer_1" xmlns="http://www.w3.org/2000/svg" xmlns:xlink="http://www.w3.org/1999/xlink" x="0px" y="0px"
	 viewBox="0 0 100 100" style="enable-background:new 0 0 100 100;" xml:space="preserve">
<style type="text/css">
	.st0{fill:#F3F3F3;}
	.st1{fill:#414142;}
	.st2{fill:none;stroke:#414142;stroke-width:1.7549;stroke-miterlimit:10;}
	.st3{fill:none;stroke:#969696;stroke-width:0.267;stroke-miterlimit:10;}
</style>
<g>
	<circle class="st0" cx="50" cy="50" r="49.6"/>
	<g>
		<path class="st1" d="M29.8,31.1l-7.7,10.1c-0.7,0.9,0.3,2,1.9,2h14.3c1,0,1.9-0.5,2.1-1.1l3-10.9l-2.7,9.9c-0.3,1.1,1,2.1,2.7,2.1
			h12.6c2,0,3.4-1.1,3.1-2.4l-2.7-9.7l2.8,10c0.3,1.2,2,2.1,3.9,2.1h13.1c1.5,0,2.5-1.1,1.8-2l-8.3-10.1"/>
		<polyline class="st2" points="74.4,38.2 74.4,75.9 25.6,75.9 25.6,38.2 		"/>
		<polyline class="st1" points="37.5,75.7 37.5,52.5 60.5,52.5 60.5,75.7 		"/>
		<path class="st3" d="M69.6,29"/>
		<path class="st3" d="M29.8,29"/>
		<rect x="29.8" y="24.1" class="st1" width="39.5" height="5.5"/>
	</g>
</g>
</svg>
