<?xml version="1.0" encoding="utf-8"?>
<!-- Generator: Adobe Illustrator 22.0.1, SVG Export Plug-In . SVG Version: 6.00 Build 0)  -->
<svg version="1.1" id="Layer_1" xmlns="http://www.w3.org/2000/svg" xmlns:xlink="http://www.w3.org/1999/xlink" x="0px" y="0px"
	 viewBox="0 0 100 100" style="enable-background:new 0 0 100 100;" xml:space="preserve">
<style type="text/css">
	.st0{fill:#F3F3F3;}
	.st1{fill:#4D7FB8;}
	.st2{fill:#FFFFFF;}
</style>
<g>
	<circle class="st0" cx="50" cy="50" r="49.6"/>
	<g>
		<path class="st1" d="M44.4,68.2c0,3.1-2.5,5.6-5.6,5.6s-5.6-2.5-5.6-5.6s2.5-5.6,5.6-5.6C41.9,62.7,44.4,65.2,44.4,68.2"/>
		<path class="st2" d="M42,68.2c0,1.7-1.4,3.1-3.1,3.1c-1.7,0-3.1-1.4-3.1-3.1s1.4-3.1,3.1-3.1S42,66.5,42,68.2"/>
		<path class="st1" d="M73.8,68.2c0,3.1-2.5,5.6-5.6,5.6s-5.6-2.5-5.6-5.6s2.5-5.6,5.6-5.6C71.3,62.7,73.8,65.2,73.8,68.2"/>
		<path class="st2" d="M71.4,68.2c0,1.7-1.4,3.1-3.1,3.1s-3.1-1.4-3.1-3.1s1.4-3.1,3.1-3.1S71.4,66.5,71.4,68.2"/>
		<g>
			<path class="st1" d="M54.8,42.9V26.7c0-0.3-0.2-0.6-0.5-0.6H19.9c-0.3,0-0.5,0.2-0.5,0.6v16.1L54.8,42.9L54.8,42.9z"/>
			<path class="st1" d="M19.4,45.7v9.8c0,0.3,0.2,0.6,0.5,0.6h34.4c0.3,0,0.5-0.2,0.5-0.6v-9.8H19.4z"/>
		</g>
		<path class="st1" d="M19.4,59v6.7v0.6v1.1h0.3h0.5h11.9c0.6-3.5,3.4-6.1,6.7-6.1s6.1,2.6,6.7,6.1h16c0.6-3.5,3.4-6.1,6.7-6.1
			s6.1,2.6,6.7,6.1h5.7V47.1l-9.8-14.8H58.5h-1.2V59H19.4z"/>
		<path class="st2" d="M74.7,45.6l-5.1-8.3h-7.9v8.3C61.8,45.6,74.5,45.4,74.7,45.6"/>
	</g>
</g>
</svg>
