<svg id="Layer_1" data-name="Layer 1" xmlns="http://www.w3.org/2000/svg" viewBox="0 0 98.75 57.8"><defs><style>.cls-1{fill:#e5e5e5;}.cls-2{fill:#fff;}.cls-3{fill:#9dc4e9;}</style></defs><title>free pass</title><path class="cls-1" d="M50,76H89.92a0,0,0,0,0,0,0,6.37,6.37,0,0,1-.15-1.39v-.55a6.64,6.64,0,0,1,6.63-6.63h2.9s0,0,0,0V53.29a0,0,0,0,0,0,0H97.65a6.33,6.33,0,0,1-6.31-6.35,6.45,6.45,0,0,1,6.52-6.28h1.48s0,0,0,0V26.46H96.44a6.64,6.64,0,0,1-6.63-6.62v-.56a6.77,6.77,0,0,1,.07-1s0,0,0,0H10.15s0,0,0,0a6.77,6.77,0,0,1,.07,1v.56a6.64,6.64,0,0,1-6.63,6.62H.62V40.59a0,0,0,0,0,0,0H2.14a6.45,6.45,0,0,1,6.52,6.28A6.28,6.28,0,0,1,6.81,51.4a6.28,6.28,0,0,1-4.46,1.86H.66s0,0,0,0V67.38a0,0,0,0,0,0,0h2.9a6.64,6.64,0,0,1,6.63,6.63v.55A6.37,6.37,0,0,1,10,76a0,0,0,0,0,0,0H50" transform="translate(-0.63 -18.24)"/><circle class="cls-2" cx="49.38" cy="28.9" r="12.34"/><path class="cls-3" d="M62.36,47.13a12.37,12.37,0,0,1-17.81,11.1h5.83V56.08h-.9a5,5,0,0,0,.87-.85,4.86,4.86,0,0,0,.6-1,16.41,16.41,0,0,1,0,3.58l0,.44h4.1V56.08H53.58A4.74,4.74,0,0,1,54.42,53a1.09,1.09,0,0,0,.13-.17c3.23-4.34,1.14-6.92-.54-9-.26-.33-.52-.65-.76-1a3.1,3.1,0,0,1,2.86.61l.87.85-.22-1.19a4.2,4.2,0,0,1,.48-2.59l.19-.31-3.5-2.47L54.09,36h-.43c-3.53,0-5.11,1.51-5.81,2.76a5.15,5.15,0,0,0-.55,3.06,5.83,5.83,0,0,0,1.3,3.3,5.53,5.53,0,0,1-2,4.07A13.56,13.56,0,0,0,45.11,51a4.34,4.34,0,0,0-.37.63,8.7,8.7,0,0,0-1,3.56c-.06.49-.08.95-.1,1.35a9.6,9.6,0,0,1,1.73-8.23c2.54-3.54.1-5.83-.35-6.2l-.15-.23a1.62,1.62,0,0,0-1.16-.77l-1.18-.19.64,1a1.7,1.7,0,0,0,1.16.77l.24,0c.4.33,2.31,2.14.17,5.12a10.17,10.17,0,0,0-1.63,9.55A12.36,12.36,0,1,1,62.36,47.13Z" transform="translate(-0.63 -18.24)"/><path class="cls-3" d="M50.4,52.06a3.21,3.21,0,0,1-.66,2.69,3.3,3.3,0,0,1-2.33,1.33v.77H49.6v.6H44.45a13.28,13.28,0,0,1,.95-5.4,5.15,5.15,0,0,1,.36-.61,4.31,4.31,0,0,1,.32-.4,2.47,2.47,0,0,1,1.87-.8,2.27,2.27,0,0,1,1.81.79A3.82,3.82,0,0,1,50.4,52.06Z" transform="translate(-0.63 -18.24)"/><path class="cls-3" d="M48.07,41.77a4.47,4.47,0,0,1,.45-2.59c.57-1,1.86-2.24,4.72-2.35a6.61,6.61,0,0,0-1.74,1.06,4.85,4.85,0,0,0-1.7,2.68c-.39,1.73.26,3.7,1.92,5.86C50.06,45.58,48.37,44.65,48.07,41.77Z" transform="translate(-0.63 -18.24)"/><path class="cls-3" d="M52.8,56.47v.38h1.48v.6H51.81c.09-1.29.2-5.09-1.47-6.94a3.07,3.07,0,0,0-2.39-1,3.19,3.19,0,0,0-.54,0,6.11,6.11,0,0,0,1.91-3.63,11.28,11.28,0,0,0,2.21,1.33,9.25,9.25,0,0,1,1.85,1.12l.28.28h0a2.93,2.93,0,0,1,.71,2.06,2.85,2.85,0,0,1-.59,1.93C53.32,53.26,52.8,54,52.8,56.47Z" transform="translate(-0.63 -18.24)"/><path class="cls-3" d="M53.41,44.36c1.39,1.71,2.72,3.36,1.73,5.92A3.53,3.53,0,0,0,54,47.8c-2.69-2.73-3.84-5.1-3.41-7.06A4.67,4.67,0,0,1,53,37.82a3,3,0,0,0-1.51,2.66C51.47,42,52.41,43.12,53.41,44.36Z" transform="translate(-0.63 -18.24)"/><path class="cls-3" d="M56.41,40.49a5.12,5.12,0,0,0-.48,1.93,4.16,4.16,0,0,0-3.13-.2,3.47,3.47,0,0,1-.56-1.74,2.28,2.28,0,0,1,1.24-2Z" transform="translate(-0.63 -18.24)"/></svg>