<?xml version="1.0" encoding="utf-8"?>
<!-- Generator: Adobe Illustrator 22.0.1, SVG Export Plug-In . SVG Version: 6.00 Build 0)  -->
<svg version="1.1" id="Layer_1" xmlns="http://www.w3.org/2000/svg" xmlns:xlink="http://www.w3.org/1999/xlink" x="0px" y="0px"
	 viewBox="0 0 98.8 57.8" style="enable-background:new 0 0 98.8 57.8;" xml:space="preserve">
<style type="text/css">
	.st0{fill:#E5E5E5;}
	.st1{fill:#FFFFFF;}
	.st2{fill:#4D7FB8;}
</style>
<title>free pass</title>
<path class="st0" d="M49.4,57.8h39.9l0,0c-0.1-0.5-0.2-0.9-0.2-1.4v-0.6c0-3.7,3-6.6,6.6-6.6h2.9l0,0V35.1l0,0H97
	c-3.5,0-6.3-2.9-6.3-6.3l0,0c0.1-3.5,3-6.3,6.5-6.3h1.5l0,0V8.2h-2.9c-3.7,0-6.6-3-6.6-6.6V1c0-0.3,0-0.7,0.1-1l0,0H9.5l0,0
	c0,0.3,0.1,0.7,0.1,1v0.6c0,3.7-3,6.6-6.6,6.6H0v14.1l0,0h1.5c3.5,0,6.4,2.8,6.5,6.3c0,1.7-0.6,3.3-1.8,4.5C5,34.4,3.4,35,1.7,35H0
	l0,0v14.1l0,0h2.9c3.7,0,6.6,3,6.6,6.6v0.6c0,0.5-0.1,1-0.2,1.4l0,0h40.1"/>
<g>
	<ellipse class="st1" cx="49.4" cy="28.9" rx="12.4" ry="12.4"/>
	<path class="st2" d="M60.6,24c-2.4,0-4.4,2-4.4,4.4V35h-2.4v-6.6c0-1.2-0.5-2.3-1.3-3.1c-0.8-0.8-1.9-1.3-3.1-1.3
		C47,24,45,26,45,28.4v6.7h-2.4v-6.7c0-3.8,3.1-6.9,6.9-6.9c1.8,0,3.6,0.7,4.8,2c0.3,0.3,0.6,0.6,0.8,0.9c1-1.5,2.6-2.5,4.4-2.8
		c-2.3-3.1-6-5.2-10.1-5.2c-6.8,0-12.4,5.5-12.4,12.4s5.5,12.4,12.4,12.4s12.4-5.5,12.4-12.4c0-1.8-0.3-3.4-1-4.9
		C60.7,24,60.7,24,60.6,24z"/>
</g>
</svg>
