<?xml version="1.0" encoding="utf-8"?>
<!-- Generator: Adobe Illustrator 22.0.1, SVG Export Plug-In . SVG Version: 6.00 Build 0)  -->
<svg version="1.1" id="Layer_1" xmlns="http://www.w3.org/2000/svg" xmlns:xlink="http://www.w3.org/1999/xlink" x="0px" y="0px"
	 viewBox="0 0 100 100" style="enable-background:new 0 0 100 100;" xml:space="preserve">
<style type="text/css">
	.st0{fill:#E5E5E5;}
	.st1{fill:#4D7FB8;}
</style>
<g>
	<path class="st0" d="M49.9,99.2c-3-1.3-37.6-15.7-38.1-48.8c-0.1-10.4-0.1-39-0.1-39S30.3,11.7,50,0.6c19.7,11,38.4,10.8,38.4,10.8
		s0,28.7-0.1,39C87.7,83.6,53,97.9,50.1,99.2C50.1,99.2,50,99.2,49.9,99.2C50,99.2,50,99.2,49.9,99.2C50,99.2,50,99.2,49.9,99.2
		L49.9,99.2z"/>
	<g>
		<path class="st1" d="M68.1,43.4h-6v-5.9c0-6.7-5.5-12.1-12.1-12.1s-12.1,5.5-12.1,12.1v5.9h-6c-0.3,0-0.4,0.1-0.4,0.4v30.4
			c0,0.3,0.1,0.4,0.4,0.4h36.3c0.3,0,0.4-0.1,0.4-0.4V43.9C68.5,43.7,68.4,43.4,68.1,43.4z M41.4,43.4v-5.9c0-4.8,3.9-8.6,8.6-8.6
			c2.3,0,4.6,0.9,6.1,2.6c1.6,1.6,2.6,3.8,2.6,6.1v5.9L41.4,43.4L41.4,43.4z"/>
		<path class="st0" d="M56,57c0,2.5-1.6,4.7-3.7,5.6v4.7c0,1.3-1,2.3-2.3,2.3s-2.3-1-2.3-2.3v-4.7c-2.2-0.9-3.7-3-3.7-5.6
			c0-3.3,2.7-6,6-6C53.3,51,56,53.6,56,57z"/>
	</g>
</g>
</svg>
