<?xml version="1.0" encoding="utf-8"?>
<!-- Generator: Adobe Illustrator 22.0.1, SVG Export Plug-In . SVG Version: 6.00 Build 0)  -->
<svg version="1.1" id="Layer_1" xmlns="http://www.w3.org/2000/svg" xmlns:xlink="http://www.w3.org/1999/xlink" x="0px" y="0px"
	 viewBox="0 0 100 100" style="enable-background:new 0 0 100 100;" xml:space="preserve">
<style type="text/css">
	.st0{fill:#F0EFEF;}
	.st1{fill:#4D7FB8;}
	.st2{fill:#FFFFFF;}
</style>
<g>
	<circle class="st0" cx="50" cy="50" r="49.6"/>
</g>
<g>
	<circle class="st1" cx="27.8" cy="44.7" r="15.4"/>
	<circle class="st1" cx="67.6" cy="36.3" r="20"/>
	<circle class="st1" cx="47.8" cy="71.3" r="12.5"/>
	<g>
		<polygon class="st2" points="28.8,39.1 26.8,39.1 26.8,43.7 21.8,43.7 21.8,45.7 26.8,45.7 26.8,51.1 28.8,51.1 28.8,45.7 
			33.8,45.7 33.8,43.7 28.8,43.7 		"/>
		<polygon class="st2" points="75.4,35.3 68.6,35.3 68.6,29.1 66.6,29.1 66.6,35.3 59.8,35.3 59.8,37.3 66.6,37.3 66.6,44.6 
			68.6,44.6 68.6,37.3 75.4,37.3 		"/>
		<polygon class="st2" points="48.8,66.8 46.8,66.8 46.8,70.3 43,70.3 43,72.3 46.8,72.3 46.8,76.4 48.8,76.4 48.8,72.3 52.7,72.3 
			52.7,70.3 48.8,70.3 		"/>
	</g>
</g>
</svg>
