<?xml version="1.0" encoding="utf-8"?>
<!-- Generator: Adobe Illustrator 22.0.1, SVG Export Plug-In . SVG Version: 6.00 Build 0)  -->
<svg version="1.1" id="Layer_1" xmlns="http://www.w3.org/2000/svg" xmlns:xlink="http://www.w3.org/1999/xlink" x="0px" y="0px"
	 viewBox="0 0 100 100" style="enable-background:new 0 0 100 100;" xml:space="preserve">
<style type="text/css">
	.st0{fill:#F0EFEF;}
	.st1{fill:#4D7FB8;}
</style>
<g>
	<circle class="st0" cx="50" cy="50" r="49.6"/>
</g>
<g>
	<g>
		<circle class="st1" cx="50" cy="16.4" r="6.4"/>
		<path class="st1" d="M50,36.1h5.3c0.6,0,1.1-0.5,1.1-1.1v-5.9l8.5-9.2c0.9-1,0.9-2.6-0.1-3.5c-0.5-0.4-1.1-0.6-1.7-0.6
			c-0.7,0-1.3,0.3-1.8,0.8l-7.6,8.3c-0.2,0.2-0.5,0.4-0.8,0.4H50h-2.8c-0.3,0-0.6-0.1-0.8-0.4l-7.6-8.3c-0.5-0.5-1.1-0.8-1.8-0.8
			c-0.6,0-1.2,0.2-1.7,0.6c-1,0.9-1.1,2.5-0.1,3.5l8.5,9.2V35c0,0.6,0.5,1.1,1.1,1.1H50z"/>
	</g>
	<g>
		<circle class="st1" cx="21" cy="33" r="6.4"/>
		<path class="st1" d="M38,43.1l2.7-4.5c0.3-0.5,0.1-1.2-0.4-1.5l-5.1-3l-3.6-12c-0.4-1.3-1.8-2-3.1-1.7c-0.6,0.2-1.1,0.6-1.4,1.1
			c-0.3,0.6-0.5,1.3-0.2,2l3.2,10.8c0.1,0.3,0.1,0.6-0.1,0.9l-1.4,2.4L27.2,40c-0.2,0.3-0.4,0.5-0.8,0.5l-11,2.3
			c-0.7,0.1-1.3,0.6-1.6,1.1s-0.4,1.1-0.3,1.8c0.3,1.3,1.6,2.2,2.9,1.9L28.7,45l5.1,3c0.5,0.3,1.2,0.1,1.5-0.4L38,43.1z"/>
	</g>
	<g>
		<circle class="st1" cx="79" cy="66.3" r="6.4"/>
		<path class="st1" d="M62,56.2l-2.7,4.5c-0.3,0.5-0.1,1.2,0.4,1.5l5.1,3l3.6,12c0.4,1.3,1.8,2,3.1,1.7c0.6-0.2,1.1-0.6,1.4-1.1
			c0.3-0.6,0.5-1.3,0.2-2L69.8,65c-0.1-0.3,0-0.6,0.1-0.9l1.4-2.4l1.4-2.4c0.2-0.3,0.4-0.5,0.8-0.5l11-2.3c0.7-0.1,1.3-0.6,1.6-1.1
			c0.3-0.5,0.4-1.1,0.3-1.8c-0.3-1.3-1.6-2.2-2.9-1.9l-12.3,2.6l-5.1-3c-0.5-0.3-1.2-0.1-1.5,0.4L62,56.2z"/>
	</g>
	<g>
		<circle class="st1" cx="50" cy="83.6" r="6.4"/>
		<path class="st1" d="M50,63.9h-5.3c-0.6,0-1.1,0.5-1.1,1.1v5.9l-8.5,9.2c-0.9,1-0.9,2.6,0.1,3.5c0.5,0.4,1.1,0.6,1.7,0.6
			c0.7,0,1.3-0.3,1.8-0.8l7.6-8.3c0.2-0.2,0.5-0.4,0.8-0.4H50h2.8c0.3,0,0.6,0.1,0.8,0.4l7.6,8.3c0.5,0.5,1.1,0.8,1.8,0.8
			c0.6,0,1.2-0.2,1.7-0.6c1-0.9,1.1-2.5,0.1-3.5l-8.5-9.2V65c0-0.6-0.5-1.1-1.1-1.1H50z"/>
	</g>
	<g>
		<circle class="st1" cx="79" cy="32.9" r="6.4"/>
		<path class="st1" d="M62,42.8l2.7,4.6c0.3,0.5,1,0.7,1.5,0.4l5.1-3l12.2,2.7c1.3,0.3,2.6-0.5,2.9-1.9c0.1-0.6,0-1.2-0.3-1.8
			s-0.9-1-1.6-1.2l-11-2.4c-0.3-0.1-0.6-0.3-0.7-0.5l-1.4-2.4L70,35c-0.2-0.3-0.2-0.6-0.1-0.9l3.3-10.8c0.2-0.7,0.1-1.4-0.2-2
			c-0.3-0.5-0.8-0.9-1.4-1.1c-1.3-0.4-2.7,0.3-3.1,1.6l-3.7,12l-5.1,3c-0.5,0.3-0.7,1-0.4,1.5L62,42.8z"/>
	</g>
	<g>
		<circle class="st1" cx="21.2" cy="66.9" r="6.4"/>
		<path class="st1" d="M38.2,57l-2.7-4.6c-0.3-0.5-1-0.7-1.5-0.4l-5,3l-12.2-2.7c-1.3-0.3-2.6,0.5-2.9,1.9c-0.1,0.6,0,1.2,0.3,1.8
			s0.9,1,1.6,1.2l11,2.4c0.3,0.1,0.6,0.3,0.7,0.5l1.4,2.4l1.4,2.4c0.2,0.3,0.2,0.6,0.1,0.9L27,76.6c-0.2,0.7-0.1,1.4,0.2,2
			c0.3,0.5,0.8,0.9,1.4,1.1c1.3,0.4,2.7-0.3,3.1-1.6l3.7-12l5.1-3c0.5-0.3,0.7-1,0.4-1.5L38.2,57z"/>
	</g>
</g>
</svg>
