<?xml version="1.0" encoding="utf-8"?>
<!-- Generator: Adobe Illustrator 22.0.1, SVG Export Plug-In . SVG Version: 6.00 Build 0)  -->
<svg version="1.1" id="Layer_1" xmlns="http://www.w3.org/2000/svg" xmlns:xlink="http://www.w3.org/1999/xlink" x="0px" y="0px"
	 viewBox="0 0 100 100" style="enable-background:new 0 0 100 100;" xml:space="preserve">
<style type="text/css">
	.st0{fill:#F0EFEF;}
	.st1{fill:#4D7FB8;}
</style>
<g>
	<circle class="st0" cx="50" cy="50" r="49.6"/>
	<g>
		<g>
			<path class="st1" d="M13.2,31.8v2.7v37.8h31.2c0,0-3.3-2.3-7-3C33.7,68.6,18,68.7,18,68.7V31.8H13.2z"/>
			<path class="st1" d="M20.7,65.8v-38c0,0,14.9,1,19.3,2.1c3.6,0.9,8.1,3.1,8.1,3.1v38.3c0,0-6.1-3.8-10.9-4.4
				C33.5,66.4,20.7,65.8,20.7,65.8z"/>
		</g>
		<g>
			<path class="st1" d="M86.8,31.8v2.7v37.8H55.6c0,0,3.3-2.3,7-3c3.7-0.6,19.3-0.6,19.3-0.6V31.8H86.8z"/>
			<path class="st1" d="M79.3,65.8v-38c0,0-14.9,1-19.3,2.1c-3.6,0.9-8.1,3.1-8.1,3.1v38.3c0,0,6.1-3.8,10.9-4.4
				C66.5,66.4,79.3,65.8,79.3,65.8z"/>
		</g>
	</g>
</g>
</svg>
