<?xml version="1.0" encoding="utf-8"?>
<!-- Generator: Adobe Illustrator 22.0.1, SVG Export Plug-In . SVG Version: 6.00 Build 0)  -->
<svg version="1.1" id="Layer_1" xmlns="http://www.w3.org/2000/svg" xmlns:xlink="http://www.w3.org/1999/xlink" x="0px" y="0px"
	 viewBox="0 0 100 100" style="enable-background:new 0 0 100 100;" xml:space="preserve">
<style type="text/css">
	.st0{fill:#F0EFEF;}
	.st1{fill:none;stroke:#4D7FB8;stroke-width:2;stroke-miterlimit:10;}
	.st2{fill:none;stroke:#4D7FB8;stroke-width:2;stroke-miterlimit:10;stroke-dasharray:0.9408,0.9408;}
	.st3{fill:#4D7FB8;}
</style>
<g>
	<circle class="st0" cx="50" cy="50" r="49.6"/>
	<g>
		<g>
			<path class="st1" d="M67.6,16.1c2.5,0,4.8,0.9,6.5,2.4c0.2,0.1,0.3,0.3,0.5,0.4c1.9,1.8,3.1,4.4,3.1,7.2
				c0,5.6-4.5,10.1-10.1,10.1c-0.2,0-0.5,0-0.7,0c-2.5-0.2-4.7-1.2-6.3-2.8"/>
			<g>
				<g>
					<path class="st1" d="M60.2,33c-0.1-0.1-0.2-0.2-0.3-0.3"/>
					<path class="st2" d="M59.3,31.9c-1.1-1.6-1.8-3.6-1.8-5.7c0-5,3.7-9.2,8.5-9.9"/>
					<path class="st1" d="M66.5,16.2c0.2,0,0.3,0,0.5,0"/>
				</g>
			</g>
			<polyline class="st1" points="67.7,22 67.6,26.3 64.8,29.1 			"/>
		</g>
		<g>
			<path class="st3" d="M83.2,37.8L50.7,26.3c-0.4-0.2-0.9-0.2-1.3,0L16.8,37.8c-0.8,0.3-1.4,1-1.4,1.9s0.5,1.6,1.3,1.9l32.5,11.6
				c0.2,0.1,0.4,0.1,0.7,0.1c0.2,0,0.5,0,0.7-0.1l32.5-11.6c0.8-0.3,1.3-1.1,1.3-1.9C84.6,38.8,84,38.1,83.2,37.8z"/>
			<path class="st3" d="M79.7,64.8V47.2l-4.1,1.4v16.2c-1.2,0.7-2,2-2,3.5s0.8,2.8,2,3.5v10c0,1.1,0.9,2,2,2s2-0.9,2-2v-10
				c1.2-0.7,2-2,2-3.5C81.7,66.8,80.9,65.5,79.7,64.8z"/>
			<path class="st3" d="M50,57.3c-0.7,0-1.4-0.1-2-0.4l-18.3-6.5v8.9c0,2.2,2.3,4,6.8,5.5c3.9,1.3,8.7,2,13.6,2s9.7-0.7,13.6-2
				c4.5-1.5,6.8-3.3,6.8-5.5v-8.9L52,57C51.4,57.2,50.7,57.3,50,57.3z"/>
		</g>
	</g>
</g>
</svg>
