<svg xmlns="http://www.w3.org/2000/svg" xmlns:xlink="http://www.w3.org/1999/xlink" viewBox="0 0 113.5 148.49"><defs><style>.cls-1,.cls-2,.cls-6{fill:none;}.cls-2,.cls-6{stroke:#969696;}.cls-2{stroke-linejoin:round;stroke-width:5.59px;}.cls-3{clip-path:url(#clip-path);}.cls-4{fill:#fff;}.cls-5,.cls-7{fill:#bacad2;}.cls-5{stroke:#989898;}.cls-5,.cls-6,.cls-8{stroke-miterlimit:10;}.cls-8{fill:#31a9dd;stroke:#919396;}</style><clipPath id="clip-path" transform="translate(0 0.7)"><rect class="cls-1" x="0.5" y="0.5" width="112.5" height="146.8"/></clipPath></defs><g id="Layer_2" data-name="Layer 2"><g id="Layer_1-2" data-name="Layer 1"><line class="cls-2" x1="11" y1="74.59" x2="11" y2="74.59"/><g class="cls-3"><g class="cls-3"><polygon class="cls-4" points="113 23.51 113 147.99 0.5 147.99 0.5 21.52 0.5 1.2 90.89 1.2 90.89 23.51 112.85 23.51 113 23.51"/><polygon class="cls-5" points="113 23 113 23.51 112.85 23.51 90.89 23.51 90.89 1.2 113 23"/></g></g><polygon class="cls-6" points="90.89 1.2 0.5 1.2 0.5 21.52 0.5 147.99 113 147.99 113 23.51 113 23 90.89 1.2"/><rect class="cls-7" x="51.64" y="35.85" width="44.32" height="6.1"/><rect class="cls-7" x="51.72" y="49.28" width="44.24" height="6.1"/><rect class="cls-7" x="26.12" y="74.59" width="69.84" height="6.1"/><rect class="cls-7" x="26.12" y="87.94" width="69.84" height="6.1"/><rect class="cls-7" x="26.12" y="101.29" width="69.84" height="6.1"/><rect class="cls-7" x="26.12" y="113.33" width="69.84" height="6.1"/><text y="0.7"/><circle class="cls-8" cx="35.9" cy="38.56" r="4.95"/><path class="cls-8" d="M39.24,42.69H32.68a6.59,6.59,0,0,0-6.56,6.55v3.34a2.49,2.49,0,0,0,2.48,2.48H43.44a2.49,2.49,0,0,0,2.48-2.48V49.24A6.79,6.79,0,0,0,39.24,42.69Z" transform="translate(0 0.7)"/></g></g></svg>