<svg xmlns="http://www.w3.org/2000/svg" xmlns:xlink="http://www.w3.org/1999/xlink" viewBox="0 0 130.12 148.49"><defs><style>.cls-1,.cls-10,.cls-2,.cls-6{fill:none;}.cls-2,.cls-6{stroke:#969696;}.cls-2{stroke-linejoin:round;stroke-width:5.59px;}.cls-3{clip-path:url(#clip-path);}.cls-4{fill:#fff;}.cls-5,.cls-7{fill:#bacad2;}.cls-5{stroke:#989898;}.cls-10,.cls-5,.cls-6,.cls-8{stroke-miterlimit:10;}.cls-8{fill:#31a9dd;stroke:#919396;stroke-width:1.6px;}.cls-9{fill:#d0d2d3;}.cls-10{stroke:#6d6e71;}</style><clipPath id="clip-path" transform="translate(0 0.7)"><rect class="cls-1" x="0.5" y="0.5" width="112.5" height="146.8"/></clipPath></defs><g id="Layer_2" data-name="Layer 2"><g id="Layer_1-2" data-name="Layer 1"><line class="cls-2" x1="11" y1="74.59" x2="11" y2="74.59"/><g class="cls-3"><g class="cls-3"><polygon class="cls-4" points="113 23.51 113 147.99 0.5 147.99 0.5 21.52 0.5 1.2 90.89 1.2 90.89 23.51 112.85 23.51 113 23.51"/><polygon class="cls-5" points="113 23 113 23.51 112.85 23.51 90.89 23.51 90.89 1.2 113 23"/></g></g><polygon class="cls-6" points="90.89 1.2 0.5 1.2 0.5 21.52 0.5 147.99 113 147.99 113 23.51 113 23 90.89 1.2"/><rect class="cls-7" x="51.64" y="35.85" width="44.32" height="6.1"/><rect class="cls-7" x="51.72" y="49.28" width="44.24" height="6.1"/><rect class="cls-7" x="26.12" y="74.59" width="69.84" height="6.1"/><rect class="cls-7" x="26.12" y="87.94" width="69.84" height="6.1"/><rect class="cls-7" x="26.12" y="101.29" width="69.84" height="6.1"/><rect class="cls-7" x="26.12" y="113.33" width="69.84" height="6.1"/><rect class="cls-7" x="26.12" y="61.9" width="69.84" height="6.1"/><circle class="cls-8" cx="35.9" cy="38.56" r="4.95"/><path class="cls-8" d="M39.24,42.69H32.68a6.59,6.59,0,0,0-6.56,6.55v3.34a2.49,2.49,0,0,0,2.48,2.48H43.44a2.49,2.49,0,0,0,2.48-2.48V49.24A6.79,6.79,0,0,0,39.24,42.69Z" transform="translate(0 0.7)"/><path class="cls-9" d="M129.62,109a5.07,5.07,0,0,1-7.09,4.65l-18.88-8.14a33.91,33.91,0,0,0,4.1-9.3l18.81,8.11A5.11,5.11,0,0,1,129.62,109Z" transform="translate(0 0.7)"/><path class="cls-9" d="M108.94,87.25a34.25,34.25,0,0,1-1.19,8.94,34.05,34.05,0,0,1-66.91-8.94,34.29,34.29,0,0,1,1-8.41,33.65,33.65,0,0,1,4-9.36,34,34,0,0,1,63.09,17.77Zm-10.7,4.83a23.84,23.84,0,0,0-42.88-18.5A23.63,23.63,0,0,0,51.44,83a23.29,23.29,0,0,0-.39,4.29,23.84,23.84,0,0,0,47.19,4.83Z" transform="translate(0 0.7)"/><path class="cls-4" d="M98.73,87.25a24,24,0,0,1-.49,4.83,23.84,23.84,0,0,1-47.19-4.83A23.29,23.29,0,0,1,51.44,83a23.84,23.84,0,0,1,47.29,4.29Z" transform="translate(0 0.7)"/><path class="cls-10" d="M107.75,96.19a34,34,0,0,0-61.9-26.71,33.65,33.65,0,0,0-4,9.36,34.06,34.06,0,0,0,61.76,26.65" transform="translate(0 0.7)"/><path class="cls-10" d="M94.1,101.37a23.84,23.84,0,0,1-43-14.12A23.29,23.29,0,0,1,51.44,83a23.84,23.84,0,0,1,47.29,4.29,24,24,0,0,1-.49,4.83A23.63,23.63,0,0,1,94.1,101.37Z" transform="translate(0 0.7)"/><path class="cls-10" d="M107.75,96.19l18.81,8.11a5.11,5.11,0,0,1,3.06,4.68,5.07,5.07,0,0,1-7.09,4.65l-18.88-8.14A33.91,33.91,0,0,0,107.75,96.19Z" transform="translate(0 0.7)"/><path class="cls-10" d="M56,88.27c0-.34,0-.68,0-1A18.89,18.89,0,0,1,70.22,68.94" transform="translate(0 0.7)"/></g></g></svg>