<svg xmlns="http://www.w3.org/2000/svg" viewBox="0 0 180.5 108.16"><defs><style>.cls-1,.cls-3{fill:#f0f1f1;}.cls-1,.cls-2,.cls-5,.cls-6,.cls-7{stroke:#919396;}.cls-1,.cls-2,.cls-5,.cls-7{stroke-miterlimit:10;}.cls-2,.cls-4,.cls-6,.cls-7{fill:#fff;}.cls-5{fill:none;}.cls-6{stroke-linejoin:round;}.cls-6,.cls-7{stroke-width:0.84px;}</style></defs><g id="Layer_2" data-name="Layer 2"><g id="Layer_1-2" data-name="Layer 1"><circle class="cls-1" cx="145.03" cy="51.43" r="19.84"/><circle class="cls-2" cx="66.32" cy="30.31" r="19.84"/><path class="cls-2" d="M31.35,85.7a35,35,0,0,1,69.94,0"/><path class="cls-3" d="M180,106.82v.84H110.06v-.84l7.2-21.25h0A35,35,0,0,1,180,106.82Z"/><path class="cls-4" d="M117.26,85.56h0a34.78,34.78,0,0,0-7.2,21.25v.84H.5V85.56Z"/><path class="cls-3" d="M117.26,85.57l-7.2,21.25A34.78,34.78,0,0,1,117.26,85.57Z"/><path class="cls-5" d="M117.26,85.57a34.78,34.78,0,0,0-7.2,21.25"/><path class="cls-5" d="M117.26,85.56H.5v22.1H180v-.84a35,35,0,0,0-62.74-21.26"/><line class="cls-5" x1="117.26" y1="85.57" x2="117.26" y2="85.56"/><path class="cls-6" d="M120.45.42H93.75A1.63,1.63,0,0,0,92.12,2V20.73a1.63,1.63,0,0,0,1.63,1.62h1.12v3.7l5.67-3.7h19.91a1.63,1.63,0,0,0,1.62-1.62V2A1.63,1.63,0,0,0,120.45.42Z"/><path class="cls-7" d="M126.1,31.56l5.59,2.1-1.44-5.31a14,14,0,1,0-4.15,3.21Z"/></g></g></svg>