<svg xmlns="http://www.w3.org/2000/svg" xmlns:xlink="http://www.w3.org/1999/xlink" viewBox="0 0 130.48 134.42"><defs><style>.cls-1,.cls-2,.cls-6{fill:none;}.cls-2,.cls-6{stroke:#969696;}.cls-2{stroke-linejoin:round;stroke-width:3.84px;}.cls-3{clip-path:url(#clip-path);}.cls-4{fill:#fff;}.cls-5,.cls-7{fill:#bacad2;}.cls-5{stroke:#989898;}.cls-5,.cls-6{stroke-miterlimit:10;}.cls-8{font-size:13.71px;fill:#808184;font-family:HelveticaNeue-Bold, HelveticaNeue Bold;font-weight:700;}</style><clipPath id="clip-path" transform="translate(0 0.69)"><polyline class="cls-1" points="103.92 101.44 103.92 0.5 26.56 0.5 26.56 101.44"/></clipPath></defs><g id="Layer_2" data-name="Layer 2"><g id="Layer_1-2" data-name="Layer 1"><line class="cls-2" x1="33.78" y1="51.66" x2="33.78" y2="51.66"/><g class="cls-3"><g class="cls-3"><polyline class="cls-4" points="26.56 102.13 26.56 15.17 26.56 1.2 88.71 1.2 88.71 16.54 103.81 16.54 103.92 16.54 103.92 102.13"/><polygon class="cls-5" points="103.92 16.19 103.92 16.54 103.81 16.54 88.71 16.54 88.71 1.2 103.92 16.19"/></g></g><polyline class="cls-6" points="103.92 70.85 103.92 37.57 103.92 16.54 103.92 16.19 88.72 1.19 26.56 1.19 26.56 15.17 26.56 36.16 26.56 70.92"/><rect class="cls-7" x="61.15" y="36.01" width="31.04" height="4.19"/><rect class="cls-7" x="61.24" y="45.24" width="30.95" height="4.19"/><rect class="cls-7" x="44.18" y="53.92" width="48.02" height="4.19"/><rect class="cls-7" x="44.18" y="36.01" width="5.44" height="4.19"/><rect class="cls-7" x="44.18" y="45.24" width="13.9" height="4.19"/><rect class="cls-7" x="52.64" y="36.01" width="5.44" height="4.19"/><text class="cls-8" transform="translate(51.27 31.71)">JOB</text><path class="cls-4" d="M130,53.49v77.92a1.78,1.78,0,0,1-.32,1l-.17,0-60.31-40,60.75-38.94Z" transform="translate(0 0.69)"/><path class="cls-4" d="M60.5,92.31l4.22-2.81,4.46,2.92,60.31,40,.17,0a1.84,1.84,0,0,1-1.51.81H2.33a1.83,1.83,0,0,1-1.27-.52L60.27,92.47Z" transform="translate(0 0.69)"/><path class="cls-4" d="M60.5,92.31l-.23.16L1.06,132.71a1.79,1.79,0,0,1-.56-1.3V53.49l.05-.18Z" transform="translate(0 0.69)"/><path class="cls-6" d="M103.91,36.88l26,16.6h0v77.92a1.78,1.78,0,0,1-.32,1,1.84,1.84,0,0,1-1.51.81H2.33a1.83,1.83,0,0,1-1.27-.52,1.79,1.79,0,0,1-.56-1.3V53.49l.05-.18,26-17.84" transform="translate(0 0.69)"/><line class="cls-6" x1="129.93" y1="54.17" x2="69.18" y2="93.12"/><polyline class="cls-6" points="60.74 93.16 60.51 93.01 60.5 93.01 0.55 54"/><polyline class="cls-6" points="129.49 133.08 69.18 93.12 64.72 90.19 60.5 93.01 60.27 93.17 1.06 133.41 0.73 133.63"/></g></g></svg>