<?xml version="1.0" encoding="utf-8"?>
<!-- Generator: Adobe Illustrator 22.0.1, SVG Export Plug-In . SVG Version: 6.00 Build 0)  -->
<svg version="1.1" id="Layer_1" xmlns="http://www.w3.org/2000/svg" xmlns:xlink="http://www.w3.org/1999/xlink" x="0px" y="0px"
	 viewBox="0 0 100 100" style="enable-background:new 0 0 100 100;" xml:space="preserve">
<style type="text/css">
	.st0{fill:#F3F3F3;}
	.st1{fill:#FFFFFF;stroke:#969696;stroke-width:0.7946;stroke-miterlimit:10;}
	.st2{fill:#414142;stroke:#414142;stroke-width:1.4222;stroke-linecap:round;stroke-linejoin:round;stroke-miterlimit:10;}
	.st3{fill:#414142;}
	.st4{fill:#FFFFFF;}
</style>
<g>
	<circle class="st0" cx="50" cy="49.6" r="49.6"/>
	<g>
		<rect x="19.4" y="33.6" class="st1" width="61.3" height="3"/>
		<rect x="19.4" y="33.6" class="st2" width="61.3" height="3"/>
		<rect x="23.3" y="66.3" class="st2" width="54.1" height="2.2"/>
		<rect x="23.3" y="66.3" class="st2" width="54.1" height="2.2"/>
		<rect x="21.4" y="70.7" class="st2" width="57.9" height="4"/>
		<rect x="21.4" y="70.7" class="st2" width="57.9" height="4"/>
		<g>
			<rect x="26.9" y="39" class="st2" width="6" height="25"/>
			<rect x="36.8" y="39" class="st2" width="6" height="25"/>
			<rect x="47.3" y="39" class="st2" width="6" height="25"/>
			<rect x="57.4" y="39" class="st2" width="6" height="25"/>
			<rect x="67.1" y="39" class="st2" width="6" height="25"/>
		</g>
		<g>
			<polygon class="st3" points="24.4,31.5 50,24.9 75.4,31.5 			"/>
			<path class="st3" d="M50,25.3l22.3,5.8H27.6L50,25.3 M50,24.5l-28.7,7.4h57.2L50,24.5L50,24.5z"/>
		</g>
		<path class="st4" d="M50,29.6c-0.8,0-1.3-0.6-1.3-1.3c0-0.8,0.6-1.3,1.3-1.3c0.8,0,1.3,0.6,1.3,1.3C51.3,29,50.7,29.6,50,29.6"/>
	</g>
</g>
</svg>
