<?xml version="1.0" encoding="utf-8"?>
<!-- Generator: Adobe Illustrator 22.0.1, SVG Export Plug-In . SVG Version: 6.00 Build 0)  -->
<svg version="1.1" id="Layer_1" xmlns="http://www.w3.org/2000/svg" xmlns:xlink="http://www.w3.org/1999/xlink" x="0px" y="0px"
	 viewBox="0 0 100 100" style="enable-background:new 0 0 100 100;" xml:space="preserve">
<style type="text/css">
	.st0{fill:#F3F3F3;}
	.st1{fill:#414142;stroke:#414142;stroke-width:1.4221;stroke-linecap:round;stroke-linejoin:round;stroke-miterlimit:10;}
	.st2{fill:#FFFFFF;}
</style>
<g>
	<circle class="st0" cx="50" cy="50" r="49.6"/>
	<g>
		<circle class="st1" cx="50.7" cy="50.2" r="31.4"/>
		<g>
			<g>
				<path class="st2" d="M50.7,69.2c-2.6,0-4.9-0.5-6.8-1.5c-1.9-1-3.6-2.5-5.1-4.4l2.6-2.6c1.2,1.7,2.6,3,4.1,3.9
					c1.5,0.9,3.3,1.3,5.4,1.3c2.2,0,4-0.5,5.4-1.6c1.4-1,2.1-2.5,2.1-4.4c0-1.4-0.3-2.6-1-3.5c-0.6-0.9-1.5-1.7-2.5-2.2
					c-1-0.6-2.2-1.1-3.4-1.5c-1.3-0.4-2.5-0.9-3.7-1.4c-1.2-0.5-2.4-1.1-3.4-1.9c-1-0.7-1.9-1.7-2.5-2.9c-0.6-1.2-0.9-2.7-0.9-4.5
					c0-1.9,0.5-3.6,1.4-4.9c0.9-1.4,2.2-2.4,3.7-3.2c1.6-0.7,3.4-1.1,5.5-1.1c2.1,0,4.1,0.4,5.9,1.3c1.8,0.9,3.2,2.1,4.4,3.6
					l-2.6,2.6c-1.1-1.3-2.2-2.3-3.5-3c-1.3-0.7-2.7-1.1-4.3-1.1c-2.1,0-3.7,0.5-4.9,1.4c-1.2,1-1.9,2.4-1.9,4.2c0,1.3,0.3,2.4,1,3.2
					c0.6,0.8,1.5,1.5,2.5,2.1c1,0.6,2.2,1,3.5,1.5c1.3,0.4,2.5,0.9,3.8,1.4c1.3,0.5,2.4,1.2,3.5,2c1,0.8,1.9,1.8,2.5,3
					c0.6,1.2,1,2.8,1,4.7c0,3.1-1,5.4-3.1,7.1C57,68.4,54.2,69.2,50.7,69.2z M50.1,73.9V28.1h2.8v45.8H50.1z"/>
			</g>
		</g>
	</g>
</g>
</svg>
