<?xml version="1.0" encoding="utf-8"?>
<!-- Generator: Adobe Illustrator 22.0.1, SVG Export Plug-In . SVG Version: 6.00 Build 0)  -->
<svg version="1.1" id="Layer_1" xmlns="http://www.w3.org/2000/svg" xmlns:xlink="http://www.w3.org/1999/xlink" x="0px" y="0px"
	 viewBox="0 0 100 100" style="enable-background:new 0 0 100 100;" xml:space="preserve">
<style type="text/css">
	.st0{fill:#F3F3F3;}
	.st1{fill:#414142;stroke:#414142;stroke-width:0.765;stroke-linecap:round;stroke-linejoin:round;stroke-miterlimit:10;}
</style>
<g>
	<circle class="st0" cx="50" cy="50" r="49.6"/>
	<g>
		<path class="st1" d="M77.7,34.2c0-0.1,0-0.1,0-0.2L60.8,50.3l16.9,15.8c0-0.1,0-0.2,0-0.3L77.7,34.2L77.7,34.2z"/>
		<path class="st1" d="M58.2,52.8l-6.9,6.6C51,59.8,50.5,60,50.1,60c-0.4,0-0.9-0.2-1.2-0.5l-6.9-6.4l-17,16.4
			c0.4,0.1,0.9,0.3,1.3,0.3h47.6c0.7,0,1.3-0.2,1.9-0.5L58.2,52.8z"/>
		<path class="st1" d="M50,55.7l25.8-24.9c-0.6-0.3-1.3-0.6-2-0.6H26.3c-0.9,0-1.8,0.4-2.5,0.9L50,55.7z"/>
		<path class="st1" d="M22.3,34.8v30.9c0,0.4,0.1,0.7,0.2,1l16.8-16.2L22.3,34.8z"/>
	</g>
</g>
</svg>
