<?xml version="1.0" encoding="utf-8"?>
<!-- Generator: Adobe Illustrator 22.0.1, SVG Export Plug-In . SVG Version: 6.00 Build 0)  -->
<svg version="1.1" id="Layer_1" xmlns="http://www.w3.org/2000/svg" xmlns:xlink="http://www.w3.org/1999/xlink" x="0px" y="0px"
	 viewBox="0 0 100 100" style="enable-background:new 0 0 100 100;" xml:space="preserve">
<style type="text/css">
	.st0{fill:#F3F3F3;}
	.st1{fill:#414142;}
	.st2{fill:#FFFFFF;}
</style>
<g>
	<circle class="st0" cx="50" cy="50" r="49.6"/>
	<g>
		<circle class="st1" cx="50" cy="50" r="31.4"/>
		<g>
			<path class="st2" d="M40.6,31.3c2.2-2.3,5.4-3.4,9.6-3.4c3.8,0,6.8,1,9.2,3.1c2.3,2.1,3.5,4.6,3.5,7.7c0,2.4-0.6,4.4-1.7,6.1
				c-1.1,1.7-2.6,3.1-4.6,4.3c-1.9,1.1-3.2,2.2-3.9,3.2c-0.7,1-1,2.3-1,3.9v1.9h-5.2v-2.8c0-2,0.5-3.7,1.4-5.1c1-1.4,2.5-2.8,4.6-4
				c1.7-1.1,3-2.1,3.7-3.2c0.7-1.1,1.1-2.4,1.1-4c0-1.9-0.7-3.4-2-4.6c-1.3-1.2-3.1-1.8-5.3-1.8c-2.3,0-4.1,0.6-5.4,1.9
				c-1.4,1.2-2.1,2.9-2.3,5.1h-5.1C37.3,36.3,38.4,33.6,40.6,31.3z M46.5,70.9c-0.8-0.8-1.2-1.8-1.2-3c0-1.2,0.4-2.2,1.2-3
				c0.8-0.8,1.8-1.2,3-1.2s2.2,0.4,3,1.2c0.8,0.8,1.2,1.8,1.2,3c0,1.2-0.4,2.2-1.2,3c-0.8,0.8-1.8,1.2-3,1.2S47.3,71.6,46.5,70.9z"
				/>
		</g>
	</g>
</g>
</svg>
