<?xml version="1.0" encoding="utf-8"?>
<!-- Generator: Adobe Illustrator 22.0.1, SVG Export Plug-In . SVG Version: 6.00 Build 0)  -->
<svg version="1.1" id="Layer_1" xmlns="http://www.w3.org/2000/svg" xmlns:xlink="http://www.w3.org/1999/xlink" x="0px" y="0px"
	 viewBox="0 0 100 100" style="enable-background:new 0 0 100 100;" xml:space="preserve">
<style type="text/css">
	.st0{fill:#F3F3F3;}
	.st1{fill:#414142;stroke:#414142;stroke-width:1.506;stroke-linecap:round;stroke-linejoin:round;stroke-miterlimit:10;}
</style>
<g>
	<circle class="st0" cx="50" cy="50" r="49.6"/>
	<g>
		<g>
			<path class="st1" d="M59.8,64.3l-1.8-5L53,45.1c1.9-1,3.1-3,3.1-5.3c0-3.4-2.7-6.1-6.1-6.1s-6.1,2.7-6.1,6.1c0,2.2,1.2,4.2,3,5.3
				l-4.8,14.3l-1.7,5l-1.1,3.4l-3.6,10.6h5.6l0.4-1c1.7-2.9,4.8-4.9,8.4-4.9c3.6,0,6.7,1.9,8.4,4.8l0,0l0.4,1.2h5.9L61,67.7
				L59.8,64.3z M49.8,53l2.3,6.4h-4.4L49.8,53z M44.8,67.7l1.1-3.4h7.9l1.2,3.4H44.8z"/>
			<path class="st1" d="M58.6,46.9l3.8,3.8c2.5-2.9,4.1-6.7,4.1-10.9c0-4.3-1.7-8.3-4.4-11.2l-3.8,3.8c1.8,2,2.9,4.6,2.9,7.4
				C61.1,42.5,60.2,44.9,58.6,46.9z"/>
			<path class="st1" d="M37.5,50.5l3.8-3.8c-1.5-1.9-2.4-4.3-2.4-6.9c0-2.8,1-5.3,2.7-7.3l-3.8-3.8c-2.6,2.9-4.3,6.8-4.3,11
				C33.6,43.9,35,47.6,37.5,50.5z"/>
			<path class="st1" d="M34.3,25.2l-3.4-3.4c-4.4,4.7-7.1,11-7.1,17.9c0,6.8,2.6,12.9,6.8,17.6L34,54c-3.3-3.8-5.4-8.7-5.4-14.2
				C28.6,34.2,30.8,29.1,34.3,25.2z"/>
			<path class="st1" d="M68.9,21.7l-3.4,3.4c3.6,3.8,5.9,9,5.9,14.7c0,5.5-2.1,10.6-5.5,14.4l3.4,3.4c4.3-4.7,6.9-10.9,6.9-17.8
				C76.2,32.8,73.4,26.4,68.9,21.7z"/>
		</g>
		<circle class="st1" cx="50" cy="39.7" r="6.2"/>
	</g>
</g>
</svg>
