<?xml version="1.0" encoding="utf-8"?>
<!-- Generator: Adobe Illustrator 22.0.1, SVG Export Plug-In . SVG Version: 6.00 Build 0)  -->
<svg version="1.1" id="Layer_1" xmlns="http://www.w3.org/2000/svg" xmlns:xlink="http://www.w3.org/1999/xlink" x="0px" y="0px"
	 viewBox="0 0 100 100" style="enable-background:new 0 0 100 100;" xml:space="preserve">
<circle style="fill:none;stroke:#231F20;stroke-width:0.75;stroke-miterlimit:10;" cx="50" cy="50" r="49.2"/>
<g>
	<path style="fill:none;stroke:#6E6F72;stroke-width:0.75;stroke-miterlimit:10;" d="M35.9,74.1h14.1H35.9c-1.5,0-2.7-1.2-2.7-2.7
		l0,0c0-2.4-0.8-4.7-2.1-6.6l0,0c-5.4-6.4-8.5-14.8-6.7-23.1c1.4-6.8,5.7-12.9,11.6-16.6c4.2-2.6,9-4,14-4s9.8,1.4,14,4
		c5.9,3.7,10.2,9.8,11.6,16.6c1.8,8.3-1.3,16.8-6.7,23.1l0,0c-1.3,1.9-2.1,4.1-2.1,6.6l0,0c0,1.5-1.2,2.7-2.7,2.7H50.1h14.1h-0.1"/>
	<path style="fill:none;stroke:#6E6F72;stroke-width:0.75;stroke-miterlimit:10;" d="M62.8,75.6H37.3c-1.3,0-2.3,1-2.3,2.3v0
		c0,1.3,1,2.3,2.3,2.3h25.5c1.3,0,2.3-1,2.3-2.3v0C65.1,76.6,64.1,75.6,62.8,75.6z"/>
	<path style="fill:none;stroke:#6E6F72;stroke-width:0.75;stroke-miterlimit:10;" d="M62.8,81.2H37.3c-1.3,0-2.3,1-2.3,2.3l0,0
		c0,1.3,1,2.3,2.3,2.3h25.5c1.3,0,2.3-1,2.3-2.3l0,0C65.1,82.2,64.1,81.2,62.8,81.2z"/>
	<path style="fill:none;stroke:#6E6F72;stroke-width:0.75;stroke-miterlimit:10;" d="M39.7,87.2L39.7,87.2c0,1.3,1,2.3,2.3,2.3h16.1
		c1.3,0,2.3-1,2.3-2.3v0H39.7z"/>
	<path style="fill:none;stroke:#6E6F72;stroke-width:0.75;stroke-linecap:round;stroke-miterlimit:10;" d="M31.5,44.6
		c0-0.3,0-0.6,0-0.9c0-7.6,5.2-14,12.3-15.8"/>
	<g>
		<path style="fill:none;stroke:#6E6F72;stroke-width:0.75;stroke-miterlimit:10;" d="M65.4,49.2v-2.9l-4-0.9
			c-0.3-1.4-0.9-2.8-1.6-4l2.2-3.5l-2-2l-3.5,2.2c-1.2-0.8-2.5-1.3-4-1.6l-0.9-4.1h-2.9l-0.9,4.1c-1.4,0.3-2.8,0.9-4,1.6l-3.5-2.2
			l-2,2l2.2,3.5c-0.8,1.2-1.3,2.5-1.6,4l-4.1,0.9v2.9l4.1,0.9c0.3,1.4,0.9,2.8,1.6,3.9l-2.2,3.5l2,2l3.5-2.2c1.2,0.8,2.5,1.3,4,1.6
			l0.9,4h2.9l0.9-4c1.4-0.3,2.8-0.9,4-1.6l3.5,2.2l2-2l-2.2-3.5c0.8-1.2,1.3-2.5,1.6-4L65.4,49.2z"/>
		<circle style="fill:none;stroke:#6E6F72;stroke-width:0.75;stroke-miterlimit:10;" cx="50.1" cy="47.8" r="7.3"/>
	</g>
	
		<line style="fill:none;stroke:#6E6F72;stroke-width:0.75;stroke-linecap:round;stroke-miterlimit:10;" x1="50.1" y1="19.3" x2="50.1" y2="10.5"/>
	
		<line style="fill:none;stroke:#6E6F72;stroke-width:0.75;stroke-linecap:round;stroke-miterlimit:10;" x1="28" y1="30.1" x2="20.6" y2="22.7"/>
	
		<line style="fill:none;stroke:#6E6F72;stroke-width:0.75;stroke-linecap:round;stroke-miterlimit:10;" x1="22.9" y1="52.2" x2="8.4" y2="52.2"/>
	
		<line style="fill:none;stroke:#6E6F72;stroke-width:0.75;stroke-linecap:round;stroke-miterlimit:10;" x1="91.6" y1="52.2" x2="77.2" y2="52.2"/>
	
		<line style="fill:none;stroke:#6E6F72;stroke-width:0.75;stroke-linecap:round;stroke-miterlimit:10;" x1="79.4" y1="22.8" x2="72.1" y2="30.1"/>
</g>
</svg>
