<?xml version="1.0" encoding="utf-8"?>
<!-- Generator: Adobe Illustrator 22.0.1, SVG Export Plug-In . SVG Version: 6.00 Build 0)  -->
<svg version="1.1" id="Layer_1" xmlns="http://www.w3.org/2000/svg" xmlns:xlink="http://www.w3.org/1999/xlink" x="0px" y="0px"
	 viewBox="0 0 100 100" style="enable-background:new 0 0 100 100;" xml:space="preserve">
<g>
	<circle style="fill:none;stroke:#231F20;stroke-width:0.75;stroke-miterlimit:10;" cx="50" cy="50" r="49.2"/>
	<g>
		<g id="XMLID_3_">
			<g>
				<path style="fill:#F2F2F2;" d="M69.4,50c0,1.4-0.1,2.7-0.4,4.1c-0.6,2.9-1.8,5.5-3.5,7.8c-3.6,4.9-9.5,8.2-16.1,8.2
					c-11,0-20-8.9-20-20c0-1.2,0.1-2.4,0.3-3.6c0.5-2.9,1.7-5.6,3.3-7.9c3.6-5.2,9.6-8.5,16.4-8.5C60.5,30,69.4,39,69.4,50z"/>
			</g>
			<g>
				<path style="fill:none;stroke:#6E6F72;stroke-width:0.75;stroke-miterlimit:10;" d="M77,57.5c0.6-2.4,1-4.9,1-7.5
					c0-15.8-12.8-28.5-28.5-28.5c-10.3,0-19.3,5.5-24.4,13.6c-1.5,2.4-2.6,5-3.3,7.9c-0.6,2.3-0.9,4.6-0.9,7
					c0,15.8,12.8,28.5,28.5,28.5c10.1,0,19-5.3,24.1-13.3"/>
				<path style="fill:none;stroke:#6E6F72;stroke-width:0.75;stroke-miterlimit:10;" d="M65.5,61.8c-3.6,4.9-9.5,8.2-16.1,8.2
					c-11,0-20-8.9-20-20c0-1.2,0.1-2.4,0.3-3.6c0.5-2.9,1.7-5.6,3.3-7.9c3.6-5.2,9.6-8.5,16.4-8.5c11,0,20,8.9,20,20
					c0,1.4-0.1,2.7-0.4,4.1C68.4,56.9,67.2,59.6,65.5,61.8z"/>
				<path style="fill:none;stroke:#6E6F72;stroke-width:0.75;stroke-miterlimit:10;" d="M77,57.5l15.8,6.8c1.6,0.7,2.6,2.3,2.6,3.9
					c0,0.6-0.1,1.1-0.3,1.7c-0.9,2.2-3.4,3.2-5.6,2.2l-15.8-6.8C75.1,62.9,76.2,60.3,77,57.5z"/>
			</g>
		</g>
		<path style="fill:none;stroke:#6E6F72;stroke-width:0.75;stroke-miterlimit:10;" d="M33.6,50.9c0-0.3,0-0.6,0-0.9
			c0-7.4,5.1-13.6,11.9-15.4"/>
	</g>
</g>
</svg>
