<?xml version="1.0" encoding="utf-8"?>
<!-- Generator: Adobe Illustrator 22.0.1, SVG Export Plug-In . SVG Version: 6.00 Build 0)  -->
<svg version="1.1" id="Layer_1" xmlns="http://www.w3.org/2000/svg" xmlns:xlink="http://www.w3.org/1999/xlink" x="0px" y="0px"
	 viewBox="0 0 100 100" style="enable-background:new 0 0 100 100;" xml:space="preserve">
<circle style="fill:none;stroke:#231F20;stroke-width:0.75;stroke-miterlimit:10;" cx="50" cy="50" r="49.2"/>
<g>
	<path style="fill:none;stroke:#6E6F72;stroke-width:0.75;stroke-miterlimit:10;" d="M77.5,34.9L77.5,34.9c-6.7-6.3-17.4-6-23.7,0.8
		l-3.4,3.7l-4.5-4.5c-6.5-6.5-17.2-6.5-23.7,0l0,0c-6.5,6.5-6.5,17.2,0,23.7l5.2,5.2l23.7,23.7l23-24.5l4.2-4.4
		C84.5,51.9,84.2,41.2,77.5,34.9z"/>
	<g>
		<path style="fill:none;stroke:#6E6F72;stroke-width:0.75;stroke-linecap:square;stroke-linejoin:round;stroke-miterlimit:10;" d="
			M50.5,12.5C50.5,12.5,50.5,12.5,50.5,12.5c-0.3,0.2-11.1,9.3-8.6,21.9c0.1,0.4,0.6,2.5,1.1,5c0.9,5.2,1.2,12.5-4.4,12
			c-4.4-0.4-3.2-4.9-2-7.7C33.2,47.2,31,52,31,57.4c0,10.8,8.7,19.5,19.5,19.5S70,68.1,70,57.4c0-2.7-0.5-5.2-1.5-7.5v0v0
			c-0.4,1.2-0.9,2.2-1.4,2.9c-0.6,0.8-1.6,1.1-1.6,0.6c0.2-3.4-0.1-6.5-0.6-9.3c-1.9-9.4-7.3-15.3-10.1-17.9
			c-0.9-0.9-1.6-1.3-1.7-1.5c0,0,0,0,0,0c0,0,0,0,0,0c0.3,0.5,3.1,5.2,3.3,8.5c0.1,2.3-1.2,4.4-3.2,4.7h0c-0.4,0.1-1.2-0.1-1.2-0.1
			c0,0-0.1,0-0.1-0.1C37.4,30.8,50.3,12.8,50.5,12.5"/>
		<path style="fill:#F2F2F2;stroke:#6E6F72;stroke-width:0.75;stroke-linejoin:round;stroke-miterlimit:10;" d="M50.5,50.6
			C50.5,50.6,50.5,50.6,50.5,50.6c-0.1,0.1-4.2,3.5-3.2,8.2c0,0.1,0.2,0.9,0.4,1.9c0.3,2,0.4,4.7-1.6,4.5c-1.7-0.2-1.2-1.8-0.8-2.9
			c-1.3,1.3-2.1,3.1-2.1,5.2c0,4.1,3.3,7.3,7.3,7.3s7.3-3.3,7.3-7.3c0-1-0.2-2-0.6-2.8v0v0c-0.2,0.4-0.3,0.8-0.5,1.1
			c-0.2,0.3-0.6,0.4-0.6,0.2c0.1-1.3,0-2.4-0.2-3.5c-1-4.7-4.2-7.1-4.4-7.3c0,0,0,0,0,0c0,0,0,0,0,0c0.1,0.2,1.2,2,1.3,3.2
			c0.1,0.9-0.5,1.7-1.2,1.8h0c-0.2,0-0.5,0-0.5,0c0,0,0,0,0,0C45.6,57.4,50.4,50.7,50.5,50.6"/>
	</g>
</g>
</svg>
