<?xml version="1.0" encoding="utf-8"?>
<!-- Generator: Adobe Illustrator 22.0.1, SVG Export Plug-In . SVG Version: 6.00 Build 0)  -->
<svg version="1.1" id="Layer_1" xmlns="http://www.w3.org/2000/svg" xmlns:xlink="http://www.w3.org/1999/xlink" x="0px" y="0px"
	 viewBox="0 0 100 100" style="enable-background:new 0 0 100 100;" xml:space="preserve">
<circle style="fill:none;stroke:#231F20;stroke-width:0.75;stroke-miterlimit:10;" cx="50" cy="50" r="49.2"/>
<g>
	<path style="fill:none;stroke:#6E6F72;stroke-width:0.75;stroke-miterlimit:10;" d="M25.6,70.1l0.9-0.3L22,40.9
		c2.1-0.8,3.6-2.9,3.6-5.2c0-2.9-2.2-5.3-5-5.6v-4.5c0-0.3-0.3-0.6-0.6-0.6s-0.6,0.3-0.6,0.6v4.5c-2.8,0.3-5,2.7-5,5.6
		c0,2.2,1.3,4.1,3.2,5.1L13.3,70l1.1,0.4l-0.6,3.9c-0.1,0.3,0.2,0.7,0.5,0.7c0,0,0.1,0,0.1,0c0.3,0,0.6-0.2,0.6-0.5l0.5-3.7l1.5,0.5
		l2.8-21.7L23.1,71l1.3-0.5l0.7,4c0.1,0.3,0.3,0.5,0.6,0.5c0,0,0.1,0,0.1,0c0.3-0.1,0.6-0.4,0.5-0.7L25.6,70.1z M15.6,35.7
		c0-2.4,2-4.4,4.4-4.4c2.4,0,4.4,2,4.4,4.4s-2,4.4-4.4,4.4C17.5,40.1,15.6,38.1,15.6,35.7z"/>
	<g>
		<path style="fill:none;stroke:#6E6F72;stroke-width:0.75;stroke-miterlimit:10;" d="M50.8,25.9v48.3L86.7,74L50.8,25.9z
			 M58.6,49.5L71,66.2l-12.4,0.1V49.5z"/>
		<line style="fill:none;stroke:#6E6F72;stroke-width:0.75;stroke-miterlimit:10;" x1="53" y1="39.9" x2="50.8" y2="39.9"/>
		<line style="fill:none;stroke:#6E6F72;stroke-width:0.75;stroke-miterlimit:10;" x1="53" y1="64.4" x2="50.8" y2="64.4"/>
		<line style="fill:none;stroke:#6E6F72;stroke-width:0.75;stroke-miterlimit:10;" x1="55.2" y1="34.8" x2="50.8" y2="34.9"/>
		<line style="fill:none;stroke:#6E6F72;stroke-width:0.75;stroke-miterlimit:10;" x1="55.2" y1="59.3" x2="50.8" y2="59.4"/>
		<line style="fill:none;stroke:#6E6F72;stroke-width:0.75;stroke-miterlimit:10;" x1="55.2" y1="69.2" x2="50.8" y2="69.3"/>
		<line style="fill:none;stroke:#6E6F72;stroke-width:0.75;stroke-miterlimit:10;" x1="61.5" y1="74.2" x2="61.5" y2="72"/>
		<line style="fill:none;stroke:#6E6F72;stroke-width:0.75;stroke-miterlimit:10;" x1="56.6" y1="74.2" x2="56.5" y2="69.8"/>
		<line style="fill:none;stroke:#6E6F72;stroke-width:0.75;stroke-miterlimit:10;" x1="66.4" y1="74.1" x2="66.4" y2="69.8"/>
		<line style="fill:none;stroke:#6E6F72;stroke-width:0.75;stroke-miterlimit:10;" x1="70.9" y1="74" x2="70.9" y2="71.7"/>
		<line style="fill:none;stroke:#6E6F72;stroke-width:0.75;stroke-miterlimit:10;" x1="75.8" y1="74" x2="75.7" y2="69.6"/>
		<line style="fill:none;stroke:#6E6F72;stroke-width:0.75;stroke-miterlimit:10;" x1="80.6" y1="74" x2="80.6" y2="71.8"/>
	</g>
	<g>
		<rect x="32" y="25.2" style="fill:none;stroke:#6E6F72;stroke-width:0.75;stroke-miterlimit:10;" width="13.3" height="49"/>
		
			<line style="fill:none;stroke:#6E6F72;stroke-width:0.75;stroke-linejoin:round;stroke-miterlimit:10;" x1="38.4" y1="30.2" x2="32" y2="30.2"/>
		
			<line style="fill:none;stroke:#6E6F72;stroke-width:0.75;stroke-linejoin:round;stroke-miterlimit:10;" x1="36.3" y1="35.1" x2="32" y2="35.2"/>
		
			<line style="fill:none;stroke:#6E6F72;stroke-width:0.75;stroke-linejoin:round;stroke-miterlimit:10;" x1="36" y1="64.3" x2="32" y2="64.4"/>
		
			<line style="fill:none;stroke:#6E6F72;stroke-width:0.75;stroke-linejoin:round;stroke-miterlimit:10;" x1="38.2" y1="59.4" x2="32" y2="59.4"/>
		
			<line style="fill:none;stroke:#6E6F72;stroke-width:0.75;stroke-linejoin:round;stroke-miterlimit:10;" x1="38.1" y1="69.2" x2="32" y2="69.2"/>
		
			<line style="fill:none;stroke:#6E6F72;stroke-width:0.75;stroke-linejoin:round;stroke-miterlimit:10;" x1="38.5" y1="40.2" x2="32" y2="40.2"/>
	</g>
	<g>
		<g id="XMLID_2_">
			<g>
				<path style="fill:#F2F2F2;" d="M63.8,45c1.8,0,1.8,8.1,0,8.1c-1,0-2.5,0-4.4,0l0-2.7l0-2.8l0-2.6C61.8,45,63.4,45,63.8,45z"/>
				<polygon style="fill:#F2F2F2;" points="59.4,47.6 59.4,50.4 22.5,50.4 22.5,47.8 22.6,47.8 59.1,47.6 				"/>
				<path style="fill:#F2F2F2;" d="M59.4,45l0,2.6l-0.2,0l-36.6,0.1l-0.1,0l0-2.9C23.6,44.9,48.9,45,59.4,45z"/>
				<path style="fill:#F2F2F2;" d="M22.7,53.6c-0.1,0-0.1,0-0.2,0l0,0l0-3.1l0,0l36.9-0.1l0,2.7C48.2,53.2,24.2,53.6,22.7,53.6z"/>
				<path style="fill:#F2F2F2;" d="M22.5,50.4L22.5,50.4l0,3.2l-7.4-3.9c-0.2-0.1-0.2-0.4,0-0.6l7.2-4.3h0.1c0,0,0,0,0,0l0,2.9
					L22.5,50.4z"/>
			</g>
			<g>
				<path style="fill:none;stroke:#6E6F72;stroke-width:0.75;stroke-miterlimit:10;" d="M59.4,45c2.4,0,4.1,0,4.4,0
					c1.8,0,1.8,8.1,0,8.1c-1,0-2.5,0-4.4,0c-11.2,0.1-35.2,0.5-36.7,0.5c-0.1,0-0.1,0-0.2,0l0,0l-7.4-3.9c-0.2-0.1-0.2-0.4,0-0.6
					l7.2-4.3h0.1c0,0,0,0,0,0C23.6,44.9,48.9,45,59.4,45z"/>
				<polyline style="fill:none;stroke:#6E6F72;stroke-width:0.75;stroke-miterlimit:10;" points="59.4,45 59.4,47.6 59.4,50.4 
					59.4,53.1 				"/>
				<line style="fill:none;stroke:#6E6F72;stroke-width:0.75;stroke-miterlimit:10;" x1="22.6" y1="47.8" x2="59.1" y2="47.6"/>
				<polyline style="fill:none;stroke:#6E6F72;stroke-width:0.75;stroke-miterlimit:10;" points="59.4,50.4 22.5,50.4 22.4,50.4 
									"/>
				<polyline style="fill:none;stroke:#6E6F72;stroke-width:0.75;stroke-miterlimit:10;" points="22.4,44.9 22.5,47.8 22.5,50.4 
					22.5,50.5 22.5,53.6 22.5,53.6 				"/>
			</g>
		</g>
	</g>
</g>
</svg>
