<?xml version="1.0" encoding="utf-8"?>
<!-- Generator: Adobe Illustrator 22.0.1, SVG Export Plug-In . SVG Version: 6.00 Build 0)  -->
<svg version="1.1" id="Layer_1" xmlns="http://www.w3.org/2000/svg" xmlns:xlink="http://www.w3.org/1999/xlink" x="0px" y="0px"
	 viewBox="0 0 100 100" style="enable-background:new 0 0 100 100;" xml:space="preserve">
<g>
	<circle style="fill:none;stroke:#231F20;stroke-width:0.75;stroke-miterlimit:10;" cx="50" cy="50" r="49.2"/>
	<g>
		<g>
			<rect x="13.2" y="31.6" style="fill:none;stroke:#6E6F72;stroke-width:0.75;stroke-miterlimit:10;" width="73.6" height="3.4"/>
			<rect x="17.8" y="69.2" style="fill:none;stroke:#6E6F72;stroke-width:0.75;stroke-miterlimit:10;" width="65.1" height="2.6"/>
			<rect x="15.6" y="74.3" style="fill:none;stroke:#6E6F72;stroke-width:0.75;stroke-miterlimit:10;" width="69.6" height="4.6"/>
			<rect x="21.8" y="37.8" style="fill:none;stroke:#6E6F72;stroke-width:0.75;stroke-miterlimit:10;" width="7.2" height="28.9"/>
			<rect x="33.8" y="37.8" style="fill:none;stroke:#6E6F72;stroke-width:0.75;stroke-miterlimit:10;" width="7.2" height="28.9"/>
			<rect x="46.3" y="37.8" style="fill:none;stroke:#6E6F72;stroke-width:0.75;stroke-miterlimit:10;" width="7.2" height="28.9"/>
			<rect x="58.5" y="37.8" style="fill:none;stroke:#6E6F72;stroke-width:0.75;stroke-miterlimit:10;" width="7.2" height="28.9"/>
			<rect x="70.2" y="37.8" style="fill:none;stroke:#6E6F72;stroke-width:0.75;stroke-miterlimit:10;" width="7.2" height="28.9"/>
			<path style="fill:none;stroke:#6E6F72;stroke-width:0.75;stroke-miterlimit:10;" d="M50,21.1l-34.4,8.5h68.8L50,21.1z M50,28.4
				c-1.4,0-2.6-1.1-2.6-2.5c0-1.4,1.2-2.5,2.6-2.5c1.4,0,2.6,1.1,2.6,2.5C52.5,27.3,51.4,28.4,50,28.4z"/>
		</g>
		<g>
			<path style="fill:#F2F2F2;stroke:#6E6F72;stroke-width:0.75;stroke-miterlimit:10;" d="M53,55.7L53,55.7l-0.1-0.1l-0.1-0.1l0,0
				L49.8,53c0,0-4.3,1.2-6.4,4.9C40.9,62.3,40.9,68,40.9,68s5.9-0.5,10.3-3.3c3.6-2.3,4.5-6.5,4.5-6.5L53,55.7z"/>
			<path style="fill:#FFFFFF;stroke:#6E6F72;stroke-width:0.75;stroke-miterlimit:10;" d="M53,55.6L53,55.6L53,55.6l-0.1-0.1l0,0
				l-1.3-1.1c0,0-1.9,0.6-2.9,2.2c-1.2,2-1.2,4.6-1.2,4.6s2.7-0.2,4.7-1.5c1.6-1.1,2-2.9,2-2.9L53,55.6z"/>
			<path style="fill:#F2F2F2;stroke:#6E6F72;stroke-width:0.75;stroke-miterlimit:10;" d="M80.6,26.5C80.6,26.5,80.6,26.5,80.6,26.5
				L80.6,26.5L80.6,26.5c-0.7,0-13.9,0.3-24.1,13.9c-0.3,0.4-0.5,0.7-0.8,1v0c0,0-5.6-3.1-11.6,4.1c-3.8,4.6-4.3,7.4-4.3,7.4
				s2.6-2.6,5-3.4c3-1.1,6.3-0.6,6.3-0.6c-1.4,2.9-1.3,4-1.3,4l3,2.5l0,0l3,2.8c0,0,1.2,0,4.1-1.6c0,0,0.8,3.1-0.1,6.1
				c-0.7,2.3-3.1,5.1-3.1,5.1s3-0.7,7.4-4.7c6.9-6.4,3.2-11.5,3.2-11.5l0,0c0.3-0.3,0.7-0.5,1-0.8C81.4,39.8,80.6,27.2,80.6,26.5
				L80.6,26.5z"/>
			<ellipse style="fill:#FFFFFF;stroke:#6E6F72;stroke-width:0.75;stroke-miterlimit:10;" cx="69.8" cy="37.9" rx="2.9" ry="2.8"/>
		</g>
	</g>
</g>
</svg>
