<?xml version="1.0" encoding="utf-8"?>
<!-- Generator: Adobe Illustrator 22.0.1, SVG Export Plug-In . SVG Version: 6.00 Build 0)  -->
<svg version="1.1" id="Layer_1" xmlns="http://www.w3.org/2000/svg" xmlns:xlink="http://www.w3.org/1999/xlink" x="0px" y="0px"
	 viewBox="0 0 100 100" style="enable-background:new 0 0 100 100;" xml:space="preserve">
<g>
	<g>
		<path style="fill:none;stroke:#6E6F72;stroke-miterlimit:10;" d="M47,84.3C30.7,73.7,9.7,75,9.7,75V34.3v-7.4c0,0,12.7,0,21.5,2.2
			c10,2.5,15.9,9.4,15.9,9.4l0,45.8c0,0-14-6.6-39.1-6.3c-4.6,0.1-6.5,0.5-6.5,0.5V34.3c0,0,2.9-0.1,4.3,0C7.6,34.5,9.7,35,9.7,35"
			/>
		<path style="fill:none;stroke:#6E6F72;stroke-miterlimit:10;" d="M1.5,78.6"/>
		<polyline style="fill:none;stroke:#6E6F72;stroke-miterlimit:10;" points="1.5,78.6 1.4,84.3 47.2,84.5 		"/>
		<path style="fill:none;stroke:#6E6F72;stroke-miterlimit:10;" d="M18.2,36.5c0,0,8.7-0.4,22,6.1"/>
		<path style="fill:none;stroke:#6E6F72;stroke-miterlimit:10;" d="M18.3,43.9c0,0,8.7-0.4,22,6.1"/>
		<path style="fill:none;stroke:#6E6F72;stroke-miterlimit:10;" d="M18.2,51.2c0,0,8.7-0.4,22,6.1"/>
		<path style="fill:none;stroke:#6E6F72;stroke-miterlimit:10;" d="M18.2,58.1c0,0,8.7-0.4,22,6.1"/>
		<path style="fill:none;stroke:#6E6F72;stroke-miterlimit:10;" d="M18.3,64.9c0,0,8.7-0.4,22,6.1"/>
	</g>
	<g>
		<path style="fill:none;stroke:#6E6F72;stroke-miterlimit:10;" d="M84.7,38.4V75c0,0-21-1.3-37.3,9.3"/>
		<path style="fill:none;stroke:#6E6F72;stroke-miterlimit:10;" d="M89.4,34.3c1.5,0,3.5,0,3.5,0v44.3c0,0-1.8-0.4-6.5-0.5
			c-25.1-0.4-39.1,6.3-39.1,6.3l0-45.8c0,0,6-7,15.9-9.4c2.8-0.7,5.9-1.1,8.9-1.5"/>
		<line style="fill:none;stroke:#6E6F72;stroke-miterlimit:10;" x1="83.9" y1="26.9" x2="83.9" y2="26.9"/>
		<path style="fill:none;stroke:#6E6F72;stroke-miterlimit:10;" d="M92.9,78.6"/>
		<polyline style="fill:none;stroke:#6E6F72;stroke-miterlimit:10;" points="92.9,78.6 93,84.3 47.2,84.5 		"/>
		<path style="fill:none;stroke:#6E6F72;stroke-miterlimit:10;" d="M54.2,42.6c4.7-2.3,8.9-3.7,12.2-4.6c1.9-0.5,3.5-0.8,4.9-1"/>
		<path style="fill:none;stroke:#6E6F72;stroke-miterlimit:10;" d="M64.7,45.8L64.7,45.8c-3.1,0.9-6.6,2.2-10.6,4.2"/>
		<path style="fill:none;stroke:#6E6F72;stroke-miterlimit:10;" d="M61.2,54.3c-2.2,0.8-4.5,1.8-7.1,3"/>
	</g>
	<g>
		<path style="fill:#E6E7E7;" d="M60.4,54c-0.5-0.4-0.4-1.3,0.5-3.1c0.4-0.8,0.9-1.7,1.6-2.8c1-1.6,2-3.1,3.2-4.6l-0.2-0.8
			c-0.7-3.3,0.6-6.3,2.2-9.4c1-2.1,2.2-4,3.6-5.7c1.4-1.7,2.9-3.2,4.5-4.6c0.8-0.7,1.7-1.3,2.6-1.9c0,0,2.7-1.7,3-1.7h0.3l0.2,0.5
			l-0.9,2.4l3.8-4.4l0.1,0c1.6-0.6,3.2-1.1,4.9-1.5l0.1,0l0.3,0l0.2,0.2c0.1,0.1,0.1,0.2,0.1,0.3c0.4-0.5,0.8-0.8,1-0.9
			c2.1-0.4,4.4-0.8,6.7-1l0.5,0l0,0.5c0.1,2.1-0.3,4.4-1.1,6.8c-0.1,0.3-0.6,1-1.3,1.6c0.1,0,0.2,0.1,0.3,0.2l0.1,0.2L97,24.6
			c-0.5,1.1-1.1,2.2-1.9,3.5l-0.1,0.1l-4.8,1.8l3.5,0.1L93.1,31C88,37.4,80.7,42.6,73.7,44.6l0,0c0,0-0.1,0-0.2,0
			c-0.4,0.1-0.9,0.3-1.4,0.3l0,0H72c-1.4,0.3-2.6,0.5-3.8,0.6c-0.3,0.3-0.6,0.7-0.9,1c-0.6,0.7-1.2,1.4-1.8,2.1
			c-1.4,1.7-2.8,3.4-4.4,5.2l-0.3,0.3L60.4,54z"/>
		<path style="fill:#6E6F72;" d="M98.5,15.5c0.1,2.1-0.3,4.3-1.1,6.6c-0.1,0.3-1.3,1.8-2.3,2.3c-0.1,0-0.1,0.1,0,0.1
			c0.2,0,0.9-0.1,1.2-0.1c0.1,0,0.1,0,0.1,0c-0.5,1.2-1.2,2.3-1.9,3.5l-7,2.6l5.1,0.1c-4.7,6-11.7,11.3-19.1,13.5c0,0-0.1,0-0.1,0
			c-0.4,0.1-0.9,0.3-1.3,0.3c0,0,0,0-0.1,0c-1.3,0.3-2.7,0.5-4,0.6c-0.3,0.4-0.7,0.8-1,1.2C65,48.6,63,51,60.7,53.6
			c-0.3-0.2,0-1.1,0.7-2.5c0.5-1,1-1.9,1.6-2.8c2-3.2,4.3-6,6.8-8.8c2.5-2.7,5.2-5.2,8.1-7.6c1.4-1.2,2.9-2.3,4.4-3.4
			c0.8-0.5,1.5-1.1,2.3-1.6c0.4-0.3,0.8-0.5,1.2-0.8c0.3-0.2,0.7-0.6,1.1-0.7c-3.6,1.3-6.9,3.5-9.8,5.9c-0.1,0.1-0.3,0.2-0.4,0.4
			c-1.5,1.3-3,2.7-4.4,4.1c-1.4,1.4-2.8,2.8-4.1,4.2c-0.7,0.8-1.3,1.6-2,2.4c-0.7-3.2,0.7-6.3,2.1-9.1c1-2,2.2-3.9,3.6-5.6
			c1.3-1.6,2.8-3.1,4.5-4.5c0.8-0.7,1.7-1.3,2.6-1.9c0.2-0.1,2.6-1.6,2.7-1.6c0,0,0,0,0,0c0,0-1.7,4.8-1.7,4.8l5.5-6.4
			c1.5-0.6,3.1-1.1,4.9-1.5c0,0,0,0,0,0c0.2,0-1,2.6-0.9,2.6c0,0,0,0,0,0c0.3-0.5,2.3-2.9,2.6-2.9C93.9,16.1,96.1,15.7,98.5,15.5
			 M99.5,14.4l-1,0.1c-2.4,0.2-4.7,0.5-6.8,1c-0.2,0-0.5,0.2-0.8,0.5l-0.1-0.1l-0.6,0l-0.1,0l-0.1,0c-1.7,0.4-3.4,1-5,1.6l-0.2,0.1
			l-0.2,0.2l-2,2.4c0-0.3,0-0.4-0.1-0.5l-0.3-0.5l-0.6,0c0,0,0,0,0,0c-0.6,0-2.8,1.5-3.3,1.8c-0.9,0.6-1.8,1.3-2.7,1.9
			c-1.7,1.4-3.2,2.9-4.6,4.6c-1.4,1.7-2.6,3.7-3.7,5.8c-1.5,3-2.9,6.3-2.2,9.7l0.1,0.5c-1.1,1.5-2.2,2.9-3.1,4.4
			c-0.7,1.1-1.2,2-1.6,2.9c-0.7,1.4-1.4,3-0.3,3.7l0.7,0.5l0.6-0.7c1.6-1.8,3-3.5,4.4-5.2c0.6-0.7,1.2-1.4,1.8-2.1
			c0.3-0.3,0.5-0.6,0.8-0.9c1.2-0.1,2.4-0.3,3.7-0.6h0.1l0.1,0c0.5-0.1,1-0.2,1.4-0.4c0.1,0,0.2,0,0.2-0.1
			C81,43,88.3,37.8,93.4,31.3l1.2-1.6l-1.9,0l2.2-0.8l0.3-0.1l0.2-0.3c0.8-1.3,1.5-2.5,2-3.6l0.2-0.5l-0.3-0.4
			c0.5-0.5,0.9-1.1,1-1.4c0.9-2.5,1.3-4.9,1.2-7L99.5,14.4L99.5,14.4z"/>
	</g>
</g>
</svg>
