<?xml version="1.0" encoding="utf-8"?>
<!-- Generator: Adobe Illustrator 22.0.1, SVG Export Plug-In . SVG Version: 6.00 Build 0)  -->
<svg version="1.1" id="Layer_1" xmlns="http://www.w3.org/2000/svg" xmlns:xlink="http://www.w3.org/1999/xlink" x="0px" y="0px"
	 viewBox="0 0 250 250" style="enable-background:new 0 0 250 250;" xml:space="preserve">
<style type="text/css">
	.st0{fill:#F3F3F3;}
	.st1{fill:#FFFFFF;stroke:#979797;stroke-width:1.6605;stroke-miterlimit:10;}
	.st2{fill:#FFFFFF;}
	.st3{fill:#979797;}
</style>
<g>
	<path class="st0" d="M248.7,125c0,68.3-55.4,123.7-123.7,123.7S1.3,193.3,1.3,125C1.3,56.7,56.7,1.3,125,1.3S248.7,56.7,248.7,125"
		/>
	<g>
		<rect x="61" y="91.7" class="st1" width="128" height="6.2"/>
		<rect x="61" y="91.7" class="st1" width="128" height="6.2"/>
		<rect x="69.1" y="160" class="st1" width="113.1" height="4.6"/>
		<rect x="69.1" y="160" class="st1" width="113.1" height="4.6"/>
		<rect x="65.2" y="169.2" class="st1" width="121" height="8.3"/>
		<rect x="65.2" y="169.2" class="st1" width="121" height="8.3"/>
		<g>
			<rect x="76.7" y="102.9" class="st1" width="12.5" height="52.3"/>
			<rect x="97.4" y="102.9" class="st1" width="12.5" height="52.3"/>
			<rect x="119.3" y="102.9" class="st1" width="12.5" height="52.3"/>
			<rect x="140.4" y="102.9" class="st1" width="12.5" height="52.3"/>
			<rect x="160.8" y="102.9" class="st1" width="12.5" height="52.3"/>
		</g>
		<g>
			<polygon class="st2" points="71.6,87.2 124.9,73.4 178.1,87.2 			"/>
			<path class="st3" d="M124.9,74.3l46.6,12.1H78.1L124.9,74.3 M124.9,72.6L65,88h119.6L124.9,72.6L124.9,72.6z"/>
		</g>
		<path class="st1" d="M124.9,83.3c-1.6,0-2.7-1.2-2.7-2.7c0-1.6,1.2-2.7,2.7-2.7c1.6,0,2.7,1.2,2.7,2.7
			C127.7,82.1,126.5,83.3,124.9,83.3"/>
	</g>
</g>
</svg>
