<?xml version="1.0" encoding="utf-8"?>
<!-- Generator: Adobe Illustrator 22.0.1, SVG Export Plug-In . SVG Version: 6.00 Build 0)  -->
<svg version="1.1" id="Layer_1" xmlns="http://www.w3.org/2000/svg" xmlns:xlink="http://www.w3.org/1999/xlink" x="0px" y="0px"
	 viewBox="0 0 250 250" style="enable-background:new 0 0 250 250;" xml:space="preserve">
<style type="text/css">
	.st0{fill:none;stroke:#D2DEEF;stroke-width:3.3867;stroke-miterlimit:10;}
	.st1{fill:#8B8B8B;stroke:#8B8B8B;stroke-width:2.3419;stroke-miterlimit:10;}
	.st2{opacity:0.15;fill:#4C80BC;}
	.st3{fill:#B1CDE2;}
	.st4{fill:#EA8724;stroke:#EA8724;stroke-width:2.3419;stroke-miterlimit:10;}
	.st5{fill:none;stroke:#FFFFFF;stroke-width:2.3419;stroke-miterlimit:10;}
</style>
<g>
	<path class="st0" d="M165.4,182.5v4.4c0,5.3-4.4,9.7-9.7,9.7h-18.2"/>
	<path class="st1" d="M135.2,203.7h-19.7c-1.3,0-2.4-1.1-2.4-2.4V191c0-1.3,1.1-2.4,2.4-2.4h19.7c1.3,0,2.4,1.1,2.4,2.4v10.3
		C137.6,202.6,136.5,203.7,135.2,203.7z"/>
	<g>
		<circle class="st2" cx="125" cy="125" r="122.5"/>
		<path class="st3" d="M125,42.1c-34.6,0-62.9,28.2-62.9,62.8v23l10.4-3.5V105c0-28.9,23.6-52.5,52.5-52.5S177.5,76,177.5,105v19.5
			l10.4,3.5v-23C187.9,70.3,159.6,42.1,125,42.1L125,42.1z"/>
		<path class="st4" d="M97.8,178.9c0.7-0.2,1.1-0.9,0.9-1.5l-7-27.3l-2.4-9.3l-5.3-20.6c-0.2-0.7-0.9-1.1-1.6-0.9l-8.2,2.2l-5,1.4
			l-0.9,0.2c-1.9,0.5-3.5,1.3-5,2.3c-5.7,3.9-8.5,11.2-6.7,18.2l2.1,7.5l2.5,9.2l2.1,7.6l0.8,2.9c1.5,5.3,5.3,9.3,10.1,11.1
			c3.1,1.2,6.7,1.5,10.2,0.6c0.1,0,0.1,0,0.2,0L97.8,178.9z"/>
		<path class="st4" d="M165.2,182.5c0.1,0,0.1,0,0.2,0c3.5,0.9,7.1,0.6,10.2-0.6c4.8-1.9,8.7-5.9,10.1-11.1l0.8-2.9l2.1-7.6l2.5-9.2
			l2.1-7.5c1.9-7-1-14.2-6.7-18.2c-1.5-1-3.2-1.8-5-2.3l-0.9-0.2l-5-1.4l-8.2-2.2c-0.7-0.2-1.4,0.2-1.6,0.9l-5.3,20.6l-2.4,9.3
			l-7,27.3c-0.2,0.7,0.2,1.3,0.9,1.5L165.2,182.5z"/>
		<line class="st5" x1="84.6" y1="182.5" x2="77.5" y2="154.8"/>
		<polyline class="st5" points="69.4,122.9 74.4,142.5 75.1,145.5 		"/>
		<line class="st5" x1="172.5" y1="154.8" x2="165.4" y2="182.5"/>
		<polyline class="st5" points="174.9,145.5 175.6,142.5 180.6,122.9 		"/>
	</g>
</g>
</svg>
