<?xml version="1.0" encoding="utf-8"?>
<!-- Generator: Adobe Illustrator 22.0.1, SVG Export Plug-In . SVG Version: 6.00 Build 0)  -->
<svg version="1.1" id="Layer_1" xmlns="http://www.w3.org/2000/svg" xmlns:xlink="http://www.w3.org/1999/xlink" x="0px" y="0px"
	 viewBox="0 0 250 250" style="enable-background:new 0 0 250 250;" xml:space="preserve">
<style type="text/css">
	.st0{fill:#FFFFFF;}
	.st1{fill:#4C7FC1;}
	.st2{fill:none;stroke:#FFFFFF;stroke-width:1.8732;stroke-miterlimit:10;}
</style>
<g>
	<circle class="st0" cx="125" cy="125" r="122.5"/>
	<g>
		<g>
			<path class="st1" d="M185.5,111.7c0,4.5-4.2,8.4-5.2,12.6c-1,4.3,1.1,9.7-0.8,13.6c-1.9,4-7.4,5.7-10.1,9.1
				c-2.7,3.4-3.2,9.2-6.7,11.9c-3.4,2.7-9.1,1.9-13.1,3.8c-3.9,1.9-6.8,6.9-11.2,7.9c-4.2,1-9-2.2-13.5-2.2s-9.3,3.2-13.5,2.2
				c-4.3-1-7.3-6-11.2-7.9c-4-1.9-9.7-1.1-13.1-3.8c-3.4-2.7-3.9-8.5-6.7-11.9c-2.7-3.4-8.2-5.2-10.1-9.1c-1.9-3.9,0.2-9.3-0.8-13.6
				c-1-4.2-5.2-8.2-5.2-12.6s4.2-8.4,5.2-12.6c1-4.3-1.1-9.7,0.8-13.6c1.9-4,7.4-5.7,10.1-9.1c2.7-3.4,3.2-9.2,6.7-11.9
				c3.4-2.7,9.1-1.9,13.1-3.8c3.9-1.9,6.8-6.9,11.2-7.9c4.2-1,9,2.2,13.5,2.2s9.3-3.2,13.5-2.2c4.3,1,7.3,6,11.2,7.9
				c4,1.9,9.7,1.1,13.1,3.8c3.4,2.7,3.9,8.5,6.7,11.9c2.7,3.4,8.2,5.2,10.1,9.1c1.9,3.9-0.2,9.3,0.8,13.6
				C181.3,103.3,185.5,107.2,185.5,111.7z"/>
		</g>
		<polygon class="st0" points="125,85.7 133.5,102.8 152.4,105.6 138.7,118.9 141.9,137.7 125,128.8 108.1,137.7 111.3,118.9 
			97.6,105.6 116.5,102.8 		"/>
		<g>
			<circle class="st2" cx="125" cy="111.7" r="46.2"/>
			<polyline class="st1" points="161.7,154.2 171,174.2 181.1,196.4 181.4,196.9 180.2,196.4 160.8,185.5 153.4,193.6 152.2,194.9 
				151.6,193.6 144.3,177.6 144.3,177.6 138.9,165.9 			"/>
			<polyline class="st1" points="113.1,165.9 107.6,177.6 107.6,177.6 100.1,193.6 99.5,194.9 98.2,193.6 90.7,185.5 70.8,196.4 
				69.6,196.9 69.9,196.4 80.3,174.2 89.8,154.2 			"/>
		</g>
	</g>
</g>
</svg>
