<?xml version="1.0" encoding="utf-8"?>
<!-- Generator: Adobe Illustrator 22.0.1, SVG Export Plug-In . SVG Version: 6.00 Build 0)  -->
<svg version="1.1" id="Layer_1" xmlns="http://www.w3.org/2000/svg" xmlns:xlink="http://www.w3.org/1999/xlink" x="0px" y="0px"
	 viewBox="0 0 100 100" style="enable-background:new 0 0 100 100;" xml:space="preserve">
<style type="text/css">
	.st0{fill:none;stroke:#FFFFFF;stroke-width:1.5;stroke-miterlimit:10;}
	.st1{fill:none;stroke:#FFFFFF;stroke-width:1.5;stroke-linecap:round;stroke-miterlimit:10;}
</style>
<g>
	<path class="st0" d="M33.8,82.6c0.4-0.1,0.6-0.5,0.5-0.9l-4.2-16.3l-1.4-5.5l-3.1-12.3c-0.1-0.4-0.5-0.7-0.9-0.5l-4.9,1.3l-3,0.8
		l-0.5,0.1c-1.1,0.3-2.1,0.8-3,1.4c-3.4,2.3-5.1,6.7-4,10.8l1.2,4.5l1.5,5.5l1.2,4.5l0.5,1.7c0.9,3.1,3.2,5.5,6,6.6
		c1.9,0.7,4,0.9,6.1,0.4h0.1L33.8,82.6z"/>
	<line class="st1" x1="25.9" y1="84.8" x2="21.7" y2="68.3"/>
	<polyline class="st1" points="16.8,49.2 19.8,60.9 20.3,62.7 	"/>
	<path class="st0" d="M86.7,50.7V39.3C86.7,19.1,70.2,2.6,50,2.6S13.3,19.1,13.3,39.3v11.4"/>
	<path class="st0" d="M80.2,48.4v-9.7C80.2,22,66.6,8.5,50,8.5S19.8,22,19.8,38.6v9.7"/>
	<path class="st0" d="M74,84.7L74,84.7c2.2,0.5,4.3,0.4,6.2-0.4c2.8-1.1,5.2-3.5,6-6.6l0.5-1.7l1.2-4.5l1.5-5.5l1.2-4.5
		c1.1-4.2-0.6-8.5-4-10.8c-0.9-0.6-1.9-1.1-3-1.4l-0.5-0.1l-3-0.8L75.3,47c-0.4-0.1-0.8,0.1-0.9,0.5l-3.1,12.3l-1.4,5.5l-4.2,16.3
		c-0.1,0.4,0.1,0.8,0.5,0.9L74,84.7z"/>
	<line class="st1" x1="78.3" y1="68.3" x2="74.1" y2="84.8"/>
	<polyline class="st1" points="79.7,62.7 80.2,60.9 83.2,49.2 	"/>
	<path class="st0" d="M74.1,84.8v2.6c0,3.2-2.6,5.8-5.8,5.8H57.5"/>
	<path class="st0" d="M56.1,97.4H44.3c-0.8,0-1.4-0.6-1.4-1.4v-6.1c0-0.8,0.6-1.4,1.4-1.4h11.8c0.8,0,1.4,0.6,1.4,1.4V96
		C57.5,96.8,56.9,97.4,56.1,97.4z"/>
</g>
</svg>
