<?xml version="1.0" encoding="utf-8"?>
<!-- Generator: Adobe Illustrator 22.0.1, SVG Export Plug-In . SVG Version: 6.00 Build 0)  -->
<svg version="1.1" id="Layer_1" xmlns="http://www.w3.org/2000/svg" xmlns:xlink="http://www.w3.org/1999/xlink" x="0px" y="0px"
	 viewBox="0 0 500 500" style="enable-background:new 0 0 500 500;" xml:space="preserve">
<style type="text/css">
	.st0{fill:none;stroke:#999999;stroke-width:3;stroke-miterlimit:10;}
	.st1{fill:none;stroke:#929292;stroke-width:3;stroke-miterlimit:10;}
</style>
<g>
	<g>
		<polyline class="st0" points="485.6,205.2 485.6,424.3 5,424.3 5,160.3 316.3,160.3 		"/>
		<path class="st0" d="M331.8,160.3c-0.1,1.6-0.2,3.2-0.2,4.9c0,6.3,0.8,12.4,2.3,18.2c8.1,32,37.1,55.7,71.7,55.7
			c21.8,0,41.4-9.4,54.9-24.4c11.8-13.1,19-30.5,19-49.5c0-1.7-0.1-3.3-0.2-4.9"/>
		<path class="st0" d="M460.5,235.7V354c-4-1.6-8.3-2.4-12.9-2.4c-19.4,0-35.2,15.8-35.2,35.2c0,5.2,1.1,10.2,3.2,14.7H71.9
			c2.2-4.6,3.5-9.8,3.5-15.3c0-19.4-15.8-35.2-35.2-35.2c-3.5,0-6.9,0.5-10.1,1.5V229.2c3.2,1,6.6,1.5,10.1,1.5
			c19.4,0,35.2-15.8,35.2-35.2c0-4.3-0.8-8.3-2.2-12.1H318"/>
		<path class="st0" d="M333.9,183.3c8.1,32,37.1,55.7,71.7,55.7c21.8,0,41.4-9.4,54.9-24.4"/>
		<circle class="st0" cx="101.8" cy="292.3" r="25.8"/>
		<circle class="st0" cx="389.9" cy="292.3" r="25.8"/>
		<circle class="st0" cx="244.6" cy="292.3" r="83"/>
		<g>
			<path class="st0" d="M259,305.9c0,6.8-4,11.8-11.1,13.1v7.3h-5.7v-7.1c-4.4-0.5-9.2-2.5-12.4-5.5l3.7-5.6
				c3.4,2.7,6.8,4.5,10.6,4.5c4.7,0,6.9-2.3,6.9-6.1c0-9.5-19.5-8.2-19.5-21.6c0-6.7,4.1-11.4,10.6-12.6V265h5.7v7.2
				c4.6,0.6,7.7,2.8,10.4,5.6l-4.2,4.8c-2.6-2.5-4.8-3.8-8.3-3.8c-3.9,0-6.2,2.1-6.2,5.7C239.5,293.1,259,291.4,259,305.9z"/>
		</g>
	</g>
	<path class="st1" d="M405.6,75.7c-47.8,0-86.8,37.4-89.3,84.5c-0.1,1.6-0.1,3.3-0.1,4.9c0,6.2,0.6,12.3,1.8,18.2
		c8.4,40.7,44.4,71.2,87.6,71.2c20.7,0,39.8-7,54.9-18.8c10.5-8.2,19.1-18.6,25.1-30.6c6-12,9.4-25.6,9.4-40
		C495,115.8,455,75.7,405.6,75.7z M460.5,214.7c-13.5,15-33.1,24.4-54.9,24.4c-34.6,0-63.6-23.7-71.7-55.7
		c-1.5-5.8-2.3-11.9-2.3-18.2c0-1.7,0.1-3.3,0.2-4.9c2.5-38.5,34.6-69,73.8-69c39.2,0,71.2,30.5,73.8,69c0.1,1.6,0.2,3.2,0.2,4.9
		C479.5,184.2,472.3,201.5,460.5,214.7z"/>
	<g>
		<g>
			<path class="st0" d="M371.2,179.2l3.8-5.2c2.7,2.6,5.9,4.8,10.5,4.8c5,0,8.6-3.2,8.6-8.6c0-5.3-3.3-8.3-8.2-8.3
				c-2.8,0-4.5,0.8-7.1,2.5l-3.9-2.5l1.3-22.1h23.9v6.9h-16.9l-1,10.8c1.9-0.9,3.6-1.4,5.9-1.4c7.7,0,14.1,4.4,14.1,13.9
				c0,9.8-7.5,15.4-15.7,15.4C379.2,185.4,374.5,182.5,371.2,179.2z"/>
			<path class="st0" d="M408.4,162c0-15.1,5.9-23,15.2-23s15.2,8,15.2,23c0,15.1-5.9,23.4-15.2,23.4S408.4,177.1,408.4,162z
				 M431,162c0-12.6-3.1-16.7-7.4-16.7c-4.3,0-7.4,4-7.4,16.7s3.1,17,7.4,17C427.9,179,431,174.6,431,162z"/>
		</g>
	</g>
</g>
</svg>
