<?xml version="1.0" encoding="utf-8"?>
<!-- Generator: Adobe Illustrator 22.0.1, SVG Export Plug-In . SVG Version: 6.00 Build 0)  -->
<svg version="1.1" id="Layer_1" xmlns="http://www.w3.org/2000/svg" xmlns:xlink="http://www.w3.org/1999/xlink" x="0px" y="0px"
	 viewBox="0 0 250 250" style="enable-background:new 0 0 250 250;" xml:space="preserve">
<style type="text/css">
	.st0{opacity:0.33;fill:#E5E5E5;}
	.st1{fill:none;stroke:#F4EA0F;stroke-width:1.9504;stroke-miterlimit:10;}
	.st2{fill:#CBCBCB;}
	.st3{fill:#FFFFFF;}
	.st4{fill:none;}
	.st5{fill:none;stroke:#FFFFFF;stroke-width:0.4876;stroke-miterlimit:10;}
	.st6{fill:#EB3033;}
	.st7{fill:#EDD21F;}
	.st8{fill:#40B249;}
	.st9{fill:#2CA6DF;}
	.st10{fill:#B9CAD3;}
	.st11{fill:#75C4A0;}
</style>
<g>
	<circle class="st0" cx="125" cy="125" r="122.5"/>
	<g>
		<g>
			<line class="st1" x1="174.5" y1="172" x2="174.5" y2="172"/>
			<g id="XMLID_2_">
				<g>
					<path class="st2" d="M65.5,90.8v-16c0-0.6,0.4-1,1-1h117c0.6,0,1,0.4,1,1v16H65.7H65.5z"/>
					<path class="st3" d="M65.5,90.8h0.2h118.8v83.3c0,0.6-0.4,1-1,1h-117c-0.6,0-1-0.4-1-1V90.8z"/>
				</g>
				<g>
					<path class="st4" d="M184.5,90.8v83.3c0,0.6-0.4,1-1,1h-117c-0.6,0-1-0.4-1-1V90.8v-16c0-0.6,0.4-1,1-1h117c0.6,0,1,0.4,1,1
						V90.8z"/>
					<polyline class="st4" points="65.7,90.8 184.5,90.8 184.5,90.8 					"/>
				</g>
			</g>
			<path class="st5" d="M169.7,84.6h-52.5c-1.2,0-2-1-2-2c0-1.2,1-2,2-2h52.5c1.2,0,2,1,2,2C171.8,83.6,170.8,84.6,169.7,84.6z"/>
			<ellipse class="st6" cx="77.2" cy="82.7" rx="2.3" ry="2.3"/>
			<ellipse class="st7" cx="86" cy="82.7" rx="2.3" ry="2.3"/>
			<ellipse class="st8" cx="94.4" cy="82.7" rx="2.3" ry="2.3"/>
			<circle class="st9" cx="97.1" cy="122.8" r="8"/>
			<path class="st9" d="M102.6,130.6H92c-5.9,0-10.5,4.7-10.5,10.5v5.5c0,2.1,1.8,3.9,3.9,3.9h23.8c2.1,0,3.9-1.8,3.9-3.9v-5.5
				C113.1,135.3,108.2,130.6,102.6,130.6z"/>
			<rect x="121.1" y="117" class="st10" width="49.7" height="5.9"/>
			<rect x="121.1" y="129.9" class="st10" width="49.7" height="5.9"/>
			<rect x="121.1" y="142.5" class="st10" width="49.7" height="5.9"/>
			<circle class="st11" cx="166.3" cy="157" r="16.4"/>
		</g>
		<g>
			<path class="st3" d="M166.3,169.4c-0.6-0.3-8-3.3-8.1-10.4c0-2.2,0-8.3,0-8.3s4,0.1,8.2-2.3c4.2,2.3,8.2,2.3,8.2,2.3s0,6.1,0,8.3
				C174.4,166.1,167,169.2,166.3,169.4C166.4,169.4,166.3,169.4,166.3,169.4C166.3,169.4,166.3,169.4,166.3,169.4
				C166.3,169.4,166.3,169.4,166.3,169.4L166.3,169.4z"/>
			<g>
				<path class="st11" d="M170.2,157.5h-1.3v-1.3c0-1.4-1.2-2.6-2.6-2.6s-2.6,1.2-2.6,2.6v1.3h-1.3c-0.1,0-0.1,0-0.1,0.1v6.5
					c0,0.1,0,0.1,0.1,0.1h7.7c0.1,0,0.1,0,0.1-0.1v-6.5C170.3,157.5,170.3,157.5,170.2,157.5z M164.5,157.5v-1.3
					c0-1,0.8-1.8,1.8-1.8c0.5,0,1,0.2,1.3,0.6c0.3,0.3,0.6,0.8,0.6,1.3v1.3L164.5,157.5L164.5,157.5z"/>
				<path class="st3" d="M167.6,160.4c0,0.5-0.3,1-0.8,1.2v1c0,0.3-0.2,0.5-0.5,0.5s-0.5-0.2-0.5-0.5v-1c-0.5-0.2-0.8-0.6-0.8-1.2
					c0-0.7,0.6-1.3,1.3-1.3C167,159.1,167.6,159.7,167.6,160.4z"/>
			</g>
		</g>
	</g>
</g>
</svg>
