<?xml version="1.0" encoding="utf-8"?>
<!-- Generator: Adobe Illustrator 22.0.1, SVG Export Plug-In . SVG Version: 6.00 Build 0)  -->
<svg version="1.1" id="Layer_1" xmlns="http://www.w3.org/2000/svg" xmlns:xlink="http://www.w3.org/1999/xlink" x="0px" y="0px"
	 viewBox="0 0 250 250" style="enable-background:new 0 0 250 250;" xml:space="preserve">
<style type="text/css">
	.st0{opacity:0.15;fill:none;stroke:#4D7FBF;stroke-width:2.2578;stroke-miterlimit:10;}
	.st1{fill:#A08A6D;}
	.st2{fill:#CAB89C;}
	.st3{fill:#D1BC9C;}
	.st4{fill:#E8D7BD;}
	.st5{fill:#B19D89;}
</style>
<g>
	<circle class="st0" cx="125" cy="125" r="122.5"/>
	<g>
		<g>
			<polyline class="st1" points="201.5,64.1 119.8,82.7 48.5,64.1 48.5,168.6 48.5,168.6 119.8,198.5 201.5,163.8 			"/>
		</g>
		<g>
			<path class="st2" d="M120.4,82.7c1.2,9.7,1.8,19.3,2.2,29c0.3,4.8,0.3,9.7,0.5,14.5l0.1,14.5c-0.1,4.8-0.1,9.7-0.2,14.5
				c-0.2,4.8-0.2,9.7-0.5,14.5c-0.4,9.7-1,19.3-2.2,29H120l-0.2-57.9l0.2-57.9H120.4z"/>
		</g>
		<polygon class="st3" points="48.5,64.1 125,51.5 201.5,64.1 120.2,82.7 		"/>
		<polyline class="st4" points="174.8,70 147.3,64.4 147.3,64.4 173.1,59.4 150.8,55.7 127.2,60.3 102.4,55.2 79.8,58.9 79.8,58.9 
			103,64.9 73.9,70.5 91.5,75.3 120.9,69.5 120.9,69.5 120.9,69.5 147.3,76.4 147.3,76.4 		"/>
		<g>
			<path class="st4" d="M48.5,64c3.1,0.5,6.1,1.1,9.1,1.6l9.1,1.9c6,1.3,12,2.8,18,4.3c6,1.6,11.9,3.2,17.8,4.9l8.9,2.7
				c2.9,1,5.9,1.9,8.8,3l0,0.2l-35.9-9.2l-35.8-9.3L48.5,64z"/>
		</g>
		<g>
			<path class="st4" d="M184.6,68c0.7-0.3,1.4-0.5,2-0.8l2.1-0.7c1.4-0.4,2.8-0.8,4.2-1.1c1.4-0.3,2.8-0.6,4.2-0.8l2.1-0.3
				c0.7,0,1.4-0.1,2.2-0.2l0,0.1l-8.4,2L184.6,68L184.6,68z"/>
		</g>
		<polyline class="st5" points="93.5,75.8 93.5,90.4 93.5,90.3 74.3,85 74.3,85 74.3,70.9 		"/>
		<polyline class="st5" points="147.3,76.5 147.3,100.1 174.8,90.9 174.8,70.2 		"/>
	</g>
</g>
</svg>
