<?xml version="1.0" encoding="utf-8"?>
<!-- Generator: Adobe Illustrator 22.0.1, SVG Export Plug-In . SVG Version: 6.00 Build 0)  -->
<svg version="1.1" id="Layer_1" xmlns="http://www.w3.org/2000/svg" xmlns:xlink="http://www.w3.org/1999/xlink" x="0px" y="0px"
	 viewBox="0 0 250 250" style="enable-background:new 0 0 250 250;" xml:space="preserve">
<style type="text/css">
	.st0{fill:#F3F3F3;}
	.st1{fill:none;stroke:#979797;stroke-width:4.7618;stroke-linejoin:round;stroke-miterlimit:10;}
	.st2{clip-path:url(#SVGID_2_);}
	.st3{clip-path:url(#SVGID_4_);fill:#FFFFFF;}
	.st4{clip-path:url(#SVGID_4_);fill:#BBCBD3;}
	.st5{fill:none;stroke:#979797;stroke-width:1.3605;stroke-miterlimit:10;}
	.st6{fill:#BBCBD3;}
	.st7{fill:#74C5A1;}
	.st8{fill:none;stroke:#FFFFFF;stroke-width:0.6803;stroke-miterlimit:10;}
	.st9{clip-path:url(#SVGID_6_);}
	.st10{clip-path:url(#SVGID_8_);fill:#544842;}
	.st11{clip-path:url(#SVGID_8_);fill:#FFFFFF;}
	.st12{fill:none;stroke:#989898;stroke-width:1.3605;stroke-miterlimit:10;}
	.st13{fill:none;stroke:#989898;stroke-width:1.3605;stroke-linecap:round;stroke-miterlimit:10;}
</style>
<g>
	<path class="st0" d="M248.7,125c0,68.3-55.4,123.7-123.7,123.7S1.3,193.3,1.3,125C1.3,56.7,56.7,1.3,125,1.3S248.7,56.7,248.7,125"
		/>
	<g>
		<line class="st1" x1="86" y1="125" x2="86" y2="125"/>
		<g>
			<defs>
				<rect id="SVGID_1_" x="77.1" y="62.5" width="95.8" height="125"/>
			</defs>
			<clipPath id="SVGID_2_">
				<use xlink:href="#SVGID_1_"  style="overflow:visible;"/>
			</clipPath>
			<g class="st2">
				<defs>
					<rect id="SVGID_3_" x="77.1" y="62.5" width="95.8" height="125"/>
				</defs>
				<clipPath id="SVGID_4_">
					<use xlink:href="#SVGID_3_"  style="overflow:visible;"/>
				</clipPath>
				<polygon class="st3" points="172.9,81.5 172.9,187.5 77.1,187.5 77.1,79.8 77.1,62.5 154.1,62.5 154.1,81.5 172.8,81.5 				"/>
				<polygon class="st4" points="172.9,81.1 172.9,81.5 172.8,81.5 154.1,81.5 154.1,62.5 				"/>
			</g>
		</g>
		<polygon class="st5" points="154.1,62.5 77.1,62.5 77.1,79.8 77.1,187.5 172.9,187.5 172.9,81.5 172.9,81.1 		"/>
		<rect x="98.9" y="92" class="st6" width="59.5" height="5.2"/>
		<rect x="99" y="103.4" class="st6" width="59.4" height="5.2"/>
		<rect x="105.7" y="125" class="st6" width="52.1" height="5.2"/>
		<rect x="105.7" y="136.4" class="st6" width="52.1" height="5.2"/>
		<rect x="105.7" y="147.7" class="st6" width="52.1" height="5.2"/>
		<rect x="105.7" y="114.2" class="st6" width="52.7" height="5.2"/>
		<rect x="98.9" y="114.2" class="st7" width="5.2" height="5.2"/>
		<polyline class="st8" points="103.3,115.1 101.5,118.5 99.7,117.2 		"/>
		<rect x="98.9" y="125.1" class="st7" width="5.2" height="5.2"/>
		<polyline class="st8" points="103.3,126 101.5,129.4 99.7,128 		"/>
		<rect x="98.9" y="136.4" class="st7" width="5.2" height="5.2"/>
		<polyline class="st8" points="103.3,137.3 101.5,140.7 99.7,139.3 		"/>
		<rect x="98.9" y="147.7" class="st7" width="5.2" height="5.2"/>
		<polyline class="st8" points="103.3,148.6 101.5,152 99.7,150.7 		"/>
		<g>
			<defs>
				<rect id="SVGID_5_" x="48.4" y="87.4" width="153.1" height="92.9"/>
			</defs>
			<clipPath id="SVGID_6_">
				<use xlink:href="#SVGID_5_"  style="overflow:visible;"/>
			</clipPath>
			<g class="st9">
				<defs>
					<rect id="SVGID_7_" x="48.4" y="87.4" width="153.1" height="92.9"/>
				</defs>
				<clipPath id="SVGID_8_">
					<use xlink:href="#SVGID_7_"  style="overflow:visible;"/>
				</clipPath>
				<polygon class="st10" points="164.6,111 163.7,108.3 184.7,100.1 201.6,133.4 174.5,140.2 173.9,138.2 172.8,135.1 				"/>
				<path class="st11" d="M164.6,111l8.2,24.1l-13.8,4.3l-6.2,8.8c-0.5-0.7-0.8-1-0.8-1l-14.7-10.8L119,122.8
					c-1.7,1.1-12.1,14.9-18.1,11.4c-0.7-0.4-1.3-1-1.9-1.9c-1.6-2.6,4.8-9.9,4.8-9.9l10.8-10.8c0,0,0,0-0.1,0
					c0.5-0.4,3.4-2.6,8.6-4.1c0.4-0.1,35.6,6.1,35.6,6.1L164.6,111z"/>
				<path class="st11" d="M152.9,148.2c1.4,1.9,3.9,6.1,1.8,9c-2.4,3.2-6.7,0.3-6.7,0.3l-0.7-0.4l-0.1,0.1c1.8,1.2,2.3,3.6,1.2,5.4
					l-1.7,2.6c-1.2,1.8-3.6,2.3-5.4,1.2l-17.1-11l-0.1,0.1l14.5,9.3c1.5,0.9,1.9,2.9,0.9,4.4l-2.2,3.4c-0.9,1.5-2.9,1.9-4.4,1
					l-2.8-1.8v0l-12.1-7.8l-3.6,0.1c-0.1-0.8-0.5-1.6-1.2-2.1l-3.2-2.5c-1.4-1.1-3.3-0.8-4.4,0.5l-0.2-0.2l2.1-2.6
					c1.1-1.4,0.8-3.3-0.5-4.4l-2.2-1.7c-1.4-1.1-3.3-0.8-4.4,0.5l-0.2-0.1l1.8-2.3c1.2-1.5,0.9-3.8-0.6-5l-2.5-2
					c-0.7-0.5-1.4-0.8-2.2-0.8l4-6.9c6,3.6,16.4-10.3,18.1-11.4l18.4,13.5l14.7,10.8C152.1,147.1,152.4,147.5,152.9,148.2"/>
				<path class="st11" d="M130.3,171.6c0.3,0.9,0.6,2.4,0.2,4.3c-0.7,3-4,2.5-4,2.5l-8.8-2.3l-7.7-4.7l0,0l4.1-5.2
					c0.5-0.7,0.7-1.5,0.6-2.3l3.6-0.1L130.3,171.6L130.3,171.6z"/>
				<path class="st11" d="M114.6,163.9c0.1,0.8-0.1,1.6-0.6,2.3l-4.1,5.2l-6.1,7.8c-1.1,1.4-3,1.6-4.4,0.5l-3.2-2.5
					c-1.4-1.1-1.6-3-0.5-4.4l10.2-13c1.1-1.4,3-1.6,4.4-0.5l3.2,2.5C114.1,162.3,114.5,163.1,114.6,163.9"/>
				<path class="st11" d="M114.5,111.6C114.6,111.6,114.6,111.6,114.5,111.6l-10.7,10.8c0,0-6.4,7.3-4.8,9.9
					c0.6,0.9,1.2,1.5,1.9,1.9l-4,6.9c-1,0-2.1,0.5-2.8,1.4l-2,2.5l-0.1,0c1-1.3,0.8-3.2-0.5-4.2l-3.4-2.7c-1.3-1-3.2-0.8-4.2,0.5
					l-5.8,7.4L72,133.7l-3.3-2.2L85,106.1l0.4-0.6c3.1,1.3,9.9,4,12.6,4C101.4,109.5,113.6,111.4,114.5,111.6"/>
				<path class="st11" d="M107.2,152.5c1.4,1.1,1.6,3,0.5,4.4l-2.1,2.6l-10.1,12.9c-1.1,1.4-3,1.6-4.4,0.5l-2.2-1.8
					c-1.4-1.1-1.6-3-0.5-4.4l12.2-15.5c1.1-1.4,3-1.6,4.4-0.5L107.2,152.5z"/>
				<path class="st11" d="M101.6,143.9c1.5,1.2,1.8,3.4,0.6,5l-1.8,2.3l-12.2,15.5c-1.2,1.5-3.4,1.8-5,0.6l-2.5-2
					c-1.5-1.2-1.8-3.4-0.6-5L92.1,145l2-2.5c0.7-0.9,1.7-1.4,2.8-1.4c0.8,0,1.5,0.3,2.2,0.8L101.6,143.9z"/>
				<path class="st11" d="M91.6,140.8c1.3,1,1.5,2.9,0.5,4.2l-9.6,12.2c-1,1.3-2.9,1.5-4.2,0.5l-3.4-2.7c-1.3-1-1.5-2.9-0.5-4.2
					l3.8-4.9l5.8-7.4c1-1.3,2.9-1.5,4.2-0.5L91.6,140.8z"/>
				<polygon class="st10" points="68.7,131.5 67.9,132.7 48.4,121.3 64.1,87.4 86.1,104.4 85.4,105.5 85,106.1 				"/>
			</g>
		</g>
		<path class="st12" d="M92.1,144.9l-9.6,12.2c-1,1.3-2.9,1.5-4.2,0.5l-3.4-2.7c-1.3-1-1.5-2.9-0.5-4.2l3.8-4.9l5.8-7.4
			c1-1.3,2.9-1.5,4.2-0.5l3.4,2.7C92.9,141.8,93.1,143.6,92.1,144.9z"/>
		<line class="st12" x1="130.3" y1="171.6" x2="118.2" y2="163.8"/>
		<path class="st13" d="M124.1,155.3l14.5,9.3c1.5,0.9,1.9,2.9,0.9,4.4l-2.2,3.4c-0.9,1.5-2.9,1.9-4.4,1l-2.8-1.8"/>
		<path class="st13" d="M130.4,146.3l16.7,10.8c1.8,1.2,2.3,3.6,1.2,5.4l-1.7,2.6c-1.2,1.8-3.6,2.3-5.4,1.2l-17.1-11"/>
		<path class="st12" d="M96.9,141.1c0.8,0,1.5,0.3,2.2,0.8l2.5,2c1.5,1.2,1.8,3.4,0.6,5l-1.8,2.3l-12.2,15.5c-1.2,1.5-3.4,1.8-5,0.6
			l-2.5-2c-1.5-1.2-1.8-3.4-0.6-5L92.1,145l2-2.5C94.8,141.6,95.9,141.1,96.9,141.1z"/>
		<path class="st12" d="M100.6,151.3c1.1-1.4,3-1.6,4.4-0.5l2.2,1.7c1.4,1.1,1.6,3,0.5,4.4l-2.1,2.6l-10.1,12.9
			c-1.1,1.4-3,1.6-4.4,0.5l-2.2-1.8c-1.4-1.1-1.6-3-0.5-4.4L100.6,151.3z"/>
		<path class="st12" d="M114.6,163.9c0.1,0.8-0.1,1.6-0.6,2.3l-4.1,5.2l-6.1,7.8c-1.1,1.4-3,1.6-4.4,0.5l-3.2-2.5
			c-1.4-1.1-1.6-3-0.5-4.4l10.2-13c1.1-1.4,3-1.6,4.4-0.5l3.2,2.5C114.1,162.3,114.5,163.1,114.6,163.9z"/>
		<polyline class="st12" points="68.7,131.5 72,133.7 78.2,145.9 		"/>
		<path class="st13" d="M130.5,146.1l16.7,10.9l0.7,0.4c0,0,4.4,2.9,6.7-0.3c2.1-2.8-0.4-7-1.8-9c-0.5-0.7-0.8-1-0.8-1l-14.7-10.8
			L119,122.8c-1.7,1.1-12.1,14.9-18.1,11.4c-0.7-0.4-1.3-1-1.9-1.9c-1.6-2.6,4.8-9.9,4.8-9.9l10.8-10.8c0,0,0,0-0.1,0
			c-0.9-0.1-13.1-2.1-16.5-2.1c-2.7,0-9.5-2.7-12.6-4"/>
		<path class="st12" d="M130.3,171.6c0.3,0.9,0.6,2.4,0.2,4.3c-0.7,3-4,2.5-4,2.5l-8.8-2.3l-7.7-4.7"/>
		<line class="st13" x1="130.3" y1="171.6" x2="130.3" y2="171.6"/>
		<path class="st12" d="M114.5,111.6C114.5,111.6,114.5,111.6,114.5,111.6c0.6-0.5,3.5-2.7,8.7-4.1c0.4-0.1,35.6,6.1,35.6,6.1
			l5.8-2.6"/>
		<polyline class="st12" points="152.8,148.2 152.9,148.2 159,139.4 172.8,135.1 		"/>
		<polygon class="st12" points="68.7,131.5 67.9,132.7 48.4,121.3 64.1,87.4 86.1,104.4 85.4,105.5 85,106.1 		"/>
		<polygon class="st12" points="164.6,111 163.7,108.3 184.7,100.1 201.6,133.4 174.5,140.2 173.9,138.2 172.8,135.1 		"/>
	</g>
</g>
</svg>
