<?xml version="1.0" encoding="utf-8"?>
<!-- Generator: Adobe Illustrator 22.0.1, SVG Export Plug-In . SVG Version: 6.00 Build 0)  -->
<svg version="1.1" id="Layer_1" xmlns="http://www.w3.org/2000/svg" xmlns:xlink="http://www.w3.org/1999/xlink" x="0px" y="0px"
	 viewBox="0 0 100 100" style="enable-background:new 0 0 100 100;" xml:space="preserve">
<style type="text/css">
	.st0{fill:#BBCBD3;}
	.st1{fill:#DDE5E8;}
	.st2{fill:#E6E6E5;}
</style>
<g>
	<path class="st0" d="M66.4,74.9l-3-8.6L55,41.5c3.1-1.8,5.2-5.3,5.2-9.3c0-5.9-4.6-10.6-10.2-10.6c-5.6,0-10.2,4.7-10.2,10.6
		c0,3.9,2,7.3,5,9.1l-8.1,24.9l-2.8,8.6L32,80.8l-6,18.5h9.4l0.6-1.8c2.8-5.1,8.1-8.6,14.1-8.6c6,0,11.2,3.4,14,8.4l0,0l0.7,2.1h9.9
		l-6.3-18.5L66.4,74.9z M49.7,55.2l3.8,11.1h-7.4L49.7,55.2z M41.4,80.8l1.9-5.9h13.2l2,5.9H41.4z"/>
	<path class="st0" d="M64.4,44.6l6.3,6.5c4.3-5,6.8-11.6,6.8-18.9c0-7.5-2.8-14.4-7.4-19.5l-6.3,6.5c3,3.4,4.8,8,4.8,12.9
		C68.6,36.9,67,41.2,64.4,44.6"/>
	<path class="st0" d="M29.1,50.8l6.3-6.6c-2.5-3.3-4-7.5-4-12c0-4.8,1.7-9.3,4.5-12.7L29.6,13c-4.4,5.1-7.1,11.8-7.1,19.2
		C22.5,39.3,25,45.8,29.1,50.8"/>
	<path class="st1" d="M23.7,7L18.1,1C10.7,9.2,6.2,20.2,6.2,32.2c0,11.8,4.3,22.5,11.4,30.6l5.7-5.9c-5.6-6.6-9-15.2-9-24.7
		C14.2,22.5,17.8,13.6,23.7,7"/>
	<path class="st1" d="M81.7,0.8L76,6.7c6.1,6.7,9.8,15.7,9.8,25.6c0,9.6-3.5,18.4-9.3,25l5.7,5.9c7.2-8.1,11.6-19,11.6-30.9
		C93.8,20,89.2,8.9,81.7,0.8"/>
	<path class="st2" d="M60.4,32.2c0,6-4.7,10.8-10.4,10.8s-10.4-4.8-10.4-10.8c0-6,4.7-10.8,10.4-10.8S60.4,26.2,60.4,32.2"/>
</g>
</svg>
