<?xml version="1.0" encoding="utf-8"?>
<!-- Generator: Adobe Illustrator 22.0.1, SVG Export Plug-In . SVG Version: 6.00 Build 0)  -->
<svg version="1.1" id="Layer_1" xmlns="http://www.w3.org/2000/svg" xmlns:xlink="http://www.w3.org/1999/xlink" x="0px" y="0px"
	 viewBox="0 0 250 250" style="enable-background:new 0 0 250 250;" xml:space="preserve">
<style type="text/css">
	.st0{opacity:0.15;fill:#4C80BC;}
	.st1{fill:none;stroke:#A9A8A8;stroke-width:3.5873;stroke-miterlimit:10;}
	.st2{fill:#EE2A27;stroke:#EE2A27;stroke-width:7.1746;stroke-miterlimit:10;}
	.st3{fill:none;stroke:#FFFFFF;stroke-width:3.5873;stroke-miterlimit:10;}
	.st4{fill:#FFFFFF;}
</style>
<g>
	<circle class="st0" cx="125" cy="125" r="122.5"/>
	<g>
		<path class="st1" d="M84.7,164.8"/>
		<polygon class="st2" points="173.5,182.7 163.2,181.7 160.4,191.6 150.6,188.4 145.8,197.5 136.9,192.3 130.3,200.2 122.6,193.3 
			114.5,199.6 108.5,191.3 99.2,195.8 95,186.4 85.1,188.9 82.9,178.9 72.6,179.2 72.7,168.9 62.5,167.2 64.7,157.1 55.1,153.2 
			59.3,143.8 50.8,138.1 56.8,129.8 49.7,122.4 57.3,115.5 51.9,106.8 60.8,101.6 57.2,92 67,88.8 65.6,78.6 75.8,77.5 76.5,67.3 
			86.8,68.3 89.6,58.4 99.4,61.6 104.2,52.5 113.1,57.7 119.7,49.8 127.4,56.7 135.5,50.4 141.5,58.7 150.8,54.2 155,63.6 
			164.9,61.1 167.1,71.1 177.4,70.8 177.3,81.1 187.5,82.8 185.3,92.9 194.9,96.8 190.7,106.2 199.2,111.9 193.2,120.2 200.3,127.6 
			192.7,134.5 198.1,143.2 189.2,148.4 192.8,158 183,161.2 184.4,171.4 174.2,172.5 		"/>
		<circle class="st3" cx="125" cy="125" r="55.7"/>
		<g>
			<path class="st4" d="M100,110.4c0.3-1.5,0.9-2.9,1.7-4c0.8-1.2,1.8-2.1,3.1-2.8c1.3-0.7,2.9-1,4.8-1c2,0,3.6,0.3,4.8,1
				c1.3,0.7,2.3,1.6,3.1,2.7c0.8,1.1,1.3,2.4,1.6,4c0.3,1.5,0.5,3.1,0.5,4.8c0,1.6-0.2,3.2-0.5,4.7c-0.4,1.5-0.9,2.9-1.8,4
				c-0.8,1.1-1.8,2.1-3.1,2.8c-1.3,0.7-2.8,1.1-4.6,1.1c-1.9,0-3.5-0.3-4.8-1c-1.3-0.6-2.3-1.5-3.1-2.7c-0.8-1.1-1.4-2.4-1.7-3.9
				c-0.4-1.5-0.5-3.1-0.5-4.8S99.6,111.9,100,110.4z M104.3,118.1c0.1,1.1,0.3,2,0.7,2.9c0.4,0.9,0.9,1.6,1.6,2.3
				c0.7,0.6,1.6,0.9,2.8,0.9c1.2,0,2.2-0.3,2.9-0.9c0.7-0.6,1.3-1.3,1.7-2.2c0.4-0.9,0.7-1.9,0.8-3c0.1-1.1,0.2-2.1,0.2-3.1
				c0-0.9-0.1-1.9-0.2-3c-0.1-1.1-0.3-2-0.7-2.9c-0.4-0.9-0.9-1.6-1.6-2.2c-0.7-0.6-1.6-0.9-2.8-0.9c-1.2,0-2.1,0.3-2.8,0.9
				c-0.7,0.6-1.3,1.4-1.7,2.2c-0.4,0.9-0.7,1.9-0.8,2.9c-0.1,1.1-0.2,2.1-0.2,3C104.2,116.1,104.2,117.1,104.3,118.1z M144.5,101.8
				l-33.6,46.5h-5.4l33.6-46.5H144.5z M130.9,130.4c0.3-1.5,0.9-2.9,1.7-4c0.8-1.2,1.8-2.1,3.1-2.8c1.3-0.7,2.9-1,4.8-1
				c2,0,3.6,0.3,4.8,1c1.3,0.7,2.3,1.6,3.1,2.7c0.8,1.1,1.3,2.5,1.6,4c0.3,1.5,0.5,3.1,0.5,4.8c0,1.6-0.2,3.2-0.5,4.7
				c-0.4,1.5-0.9,2.9-1.8,4c-0.8,1.1-1.8,2.1-3.1,2.8c-1.2,0.7-2.8,1-4.6,1c-1.9,0-3.5-0.3-4.8-1c-1.3-0.6-2.3-1.5-3.1-2.6
				c-0.8-1.1-1.4-2.4-1.7-3.9c-0.4-1.5-0.5-3.1-0.5-4.8S130.5,132,130.9,130.4z M135.2,138.1c0.1,1.1,0.3,2,0.7,2.9
				c0.4,0.9,0.9,1.6,1.6,2.3c0.7,0.6,1.6,0.9,2.8,0.9c1.2,0,2.2-0.3,2.9-0.9c0.7-0.6,1.3-1.3,1.7-2.2c0.4-0.9,0.7-1.9,0.8-3
				c0.1-1.1,0.2-2.1,0.2-3.1c0-0.9-0.1-1.9-0.2-3s-0.3-2-0.7-2.9c-0.4-0.9-0.9-1.6-1.6-2.3c-0.7-0.6-1.6-0.9-2.8-0.9
				c-1.2,0-2.1,0.3-2.8,0.9c-0.7,0.6-1.3,1.4-1.7,2.3c-0.4,0.9-0.7,1.9-0.8,2.9c-0.1,1.1-0.2,2.1-0.2,3
				C135.1,136.1,135.1,137.1,135.2,138.1z"/>
		</g>
	</g>
</g>
</svg>
