<?xml version="1.0" encoding="utf-8"?>
<!-- Generator: Adobe Illustrator 22.0.1, SVG Export Plug-In . SVG Version: 6.00 Build 0)  -->
<svg version="1.1" id="Layer_1" xmlns="http://www.w3.org/2000/svg" xmlns:xlink="http://www.w3.org/1999/xlink" x="0px" y="0px"
	 viewBox="0 0 250 250" style="enable-background:new 0 0 250 250;" xml:space="preserve">
<style type="text/css">
	.st0{opacity:0.33;fill:#E5E5E5;}
	.st1{fill:#74C5A2;}
	.st2{fill:#FFFFFF;}
</style>
<circle class="st0" cx="125" cy="125" r="122.5"/>
<g>
	<path class="st1" d="M124.8,191.2c-4-1.8-50.5-21.1-51.2-65.6c-0.2-14-0.2-52.5-0.2-52.5s25.1,0.4,51.6-14.6
		c26.5,14.7,51.6,14.6,51.6,14.6s0,38.6-0.2,52.5c-0.7,44.6-47.4,63.9-51.2,65.6c0,0-0.2,0-0.2,0.2C125,191.2,125,191.2,124.8,191.2
		C125,191.2,125,191.2,124.8,191.2L124.8,191.2z"/>
	<g>
		<path class="st2" d="M149.4,116h-8.1v-7.9c0-8.9-7.4-16.3-16.3-16.3s-16.3,7.4-16.3,16.3v7.9h-8.1c-0.4,0-0.5,0.2-0.5,0.5v40.9
			c0,0.4,0.2,0.5,0.5,0.5h48.8c0.4,0,0.5-0.2,0.5-0.5v-40.7C149.9,116.3,149.7,116,149.4,116z M113.4,116v-7.9
			c0-6.5,5.3-11.6,11.6-11.6c3.2,0,6.1,1.2,8.2,3.5c2.1,2.1,3.5,5.1,3.5,8.2v7.9h-23.3V116z"/>
		<path class="st1" d="M133.1,134.2c0,3.3-2.1,6.3-4.9,7.5v6.3c0,1.8-1.4,3.2-3.2,3.2c-1.8,0-3.2-1.4-3.2-3.2v-6.3
			c-3-1.2-4.9-4-4.9-7.5c0-4.4,3.7-8.1,8.1-8.1C129.4,126.1,133.1,129.7,133.1,134.2z"/>
	</g>
</g>
</svg>
