<?xml version="1.0" encoding="utf-8"?>
<!-- Generator: Adobe Illustrator 22.0.1, SVG Export Plug-In . SVG Version: 6.00 Build 0)  -->
<svg version="1.1" id="Layer_1" xmlns="http://www.w3.org/2000/svg" xmlns:xlink="http://www.w3.org/1999/xlink" x="0px" y="0px"
	 viewBox="0 0 250 250" style="enable-background:new 0 0 250 250;" xml:space="preserve">
<style type="text/css">
	.st0{fill:#F3F3F3;}
	.st1{fill:none;stroke:#979797;stroke-width:4.7618;stroke-linejoin:round;stroke-miterlimit:10;}
	.st2{clip-path:url(#SVGID_2_);}
	.st3{clip-path:url(#SVGID_4_);fill:#FFFFFF;}
	.st4{clip-path:url(#SVGID_4_);fill:#BBCBD3;}
	.st5{fill:none;stroke:#979797;stroke-width:1.3605;stroke-miterlimit:10;}
	.st6{fill:#BBCBD3;}
	.st7{fill:#544842;}
	.st8{fill:#FFFFFF;}
</style>
<g>
	<path class="st0" d="M248.7,125c0,68.3-55.4,123.7-123.7,123.7S1.3,193.3,1.3,125C1.3,56.7,56.7,1.3,125,1.3S248.7,56.7,248.7,125"
		/>
	<g>
		<line class="st1" x1="108" y1="130.7" x2="108" y2="130.7"/>
		<g>
			<defs>
				<rect id="SVGID_1_" x="87.8" y="61.1" width="110.7" height="127.8"/>
			</defs>
			<clipPath id="SVGID_2_">
				<use xlink:href="#SVGID_1_"  style="overflow:visible;"/>
			</clipPath>
			<g class="st2">
				<defs>
					<rect id="SVGID_3_" x="87.8" y="61.1" width="110.7" height="127.8"/>
				</defs>
				<clipPath id="SVGID_4_">
					<use xlink:href="#SVGID_3_"  style="overflow:visible;"/>
				</clipPath>
				<polygon class="st3" points="178.1,74.6 198.5,170.5 111.9,188.9 91.2,91.6 87.8,75.9 157.4,61.1 161.1,78.3 178,74.7 				"/>
				<polygon class="st4" points="178,74.3 178.1,74.6 178,74.7 161.1,78.3 157.4,61.1 				"/>
			</g>
		</g>
		<polygon class="st5" points="157.4,61.1 87.8,75.9 91.2,91.6 111.9,188.9 198.5,170.5 178.1,74.6 178,74.3 		"/>
		
			<rect x="107.4" y="93.2" transform="matrix(0.9781 -0.2083 0.2083 0.9781 -16.8926 30.7958)" class="st6" width="60.7" height="4.8"/>
		
			<rect x="109.6" y="103.5" transform="matrix(0.9781 -0.2083 0.2083 0.9781 -18.9961 31.4805)" class="st6" width="60.7" height="4.8"/>
		
			<rect x="113.8" y="123.1" transform="matrix(0.9781 -0.2083 0.2083 0.9781 -22.9873 32.7011)" class="st6" width="60" height="4.8"/>
		
			<rect x="118.4" y="146.3" transform="matrix(0.9781 -0.2083 0.2083 0.9781 -27.9887 31.5583)" class="st6" width="34.8" height="4.8"/>
		
			<rect x="111.7" y="113.3" transform="matrix(0.9781 -0.2083 0.2083 0.9781 -20.9743 32.1249)" class="st6" width="60.7" height="4.8"/>
		<polygon class="st7" points="51.5,148.5 77.7,139 78.6,140.9 91.7,169.6 71.6,179.9 		"/>
		<polygon class="st5" points="51.5,148.5 77.7,139 78.6,140.9 91.7,169.6 71.6,179.9 		"/>
		<path class="st8" d="M78.6,140.9l4.2-2.5c0,0,3.6-14.7,4.4-18.3c0.8-3.6,1.9-5.1,1.9-5.1l16.3-11.4c0,0,3.6,1.6,2.4,4.9
			c-1.3,3.3-9.9,11-9.9,11l8.4,42.3h-10l-6.2,3.8"/>
		<path class="st5" d="M78.6,140.9l4.2-2.5c0,0,3.6-14.7,4.4-18.3c0.8-3.6,1.9-5.1,1.9-5.1l16.3-11.4c0,0,3.6,1.6,2.4,4.9
			c-1.3,3.3-9.9,11-9.9,11l8.4,42.3h-10l-6.2,3.8"/>
		<rect x="116" y="133" transform="matrix(0.9781 -0.2083 0.2083 0.9781 -25.0096 33.3768)" class="st6" width="60" height="4.8"/>
	</g>
</g>
</svg>
