<?xml version="1.0" encoding="utf-8"?>
<!-- Generator: Adobe Illustrator 22.0.1, SVG Export Plug-In . SVG Version: 6.00 Build 0)  -->
<svg version="1.1" id="Layer_1" xmlns="http://www.w3.org/2000/svg" xmlns:xlink="http://www.w3.org/1999/xlink" x="0px" y="0px"
	 viewBox="0 0 250 250" style="enable-background:new 0 0 250 250;" xml:space="preserve">
<style type="text/css">
	.st0{opacity:0.33;fill:#E5E5E5;}
	.st1{fill:#DFF3FD;}
	.st2{fill:#425C7D;}
	.st3{fill:none;}
	.st4{fill:none;stroke:#FFFFFF;stroke-width:1.9317;stroke-linejoin:round;stroke-miterlimit:10;}
</style>
<g>
	<circle class="st0" cx="125" cy="125" r="122.5"/>
	<g>
		<path class="st1" d="M122.1,171.6c0,0-13.7,0-18.3,0c-0.6,0-2.5,0-2.5,0c-3.7,0-6.7,3-6.7,6.7l0,0h60.7l0,0c0-3.7-3-6.7-6.7-6.7
			h-2.5h-18.2h18.2v-10h-42.3v10"/>
		<g>
			<path class="st2" d="M197.2,80.9v71.5H52.8V80.9c0-5.1,4.1-9.2,9.2-9.2h126C193.1,71.7,197.2,75.9,197.2,80.9z"/>
			<path class="st1" d="M52.8,152.4h144.4c0,5.1-4.1,9.2-9.2,9.2H62C56.9,161.6,52.8,157.5,52.8,152.4z"/>
		</g>
		<path class="st3" d="M197.2,152.4c0,5.1-4.1,9.2-9.2,9.2H62c-5.1,0-9.2-4.1-9.2-9.2V80.9c0-5.1,4.1-9.2,9.2-9.2h126
			c5.1,0,9.2,4.1,9.2,9.2V152.4z"/>
		<line class="st3" x1="52.8" y1="152.4" x2="197.2" y2="152.4"/>
		<g>
			<circle class="st4" cx="77.4" cy="122.5" r="6.5"/>
			<circle class="st4" cx="128.4" cy="130.1" r="6.5"/>
			<circle class="st4" cx="172.6" cy="93" r="6.5"/>
			<line class="st4" x1="83.9" y1="123.6" x2="121.8" y2="130.1"/>
			<line class="st4" x1="167.7" y1="97.3" x2="134.1" y2="126.9"/>
		</g>
	</g>
</g>
</svg>
