<?xml version="1.0" encoding="utf-8"?>
<!-- Generator: Adobe Illustrator 22.0.1, SVG Export Plug-In . SVG Version: 6.00 Build 0)  -->
<svg version="1.1" id="Layer_1" xmlns="http://www.w3.org/2000/svg" xmlns:xlink="http://www.w3.org/1999/xlink" x="0px" y="0px"
	 viewBox="0 0 250 250" style="enable-background:new 0 0 250 250;" xml:space="preserve">
<style type="text/css">
	.st0{fill:#FFFFFF;}
	.st1{fill:#E9E8E8;}
	.st2{fill:#DCDCDC;}
	.st3{fill:#4C7FC1;}
	.st4{fill:#F7F4F2;}
</style>
<g>
	<circle class="st0" cx="125" cy="125" r="122.5"/>
	<g>
		<path class="st1" d="M185.4,68.9c-28.7,0-58.1-16.2-58.4-16.4l-2.1-1.1l-2.1,1.1c-0.3,0.2-29.6,16.4-58.4,16.4h-4.3v4.3
			c0,105.7,61,124.4,63.6,125.2l1.2,0.3l1.2-0.3c2.6-0.7,63.6-19.5,63.6-125.2v-4.3H185.4z"/>
		<path class="st2" d="M189.8,73.2v-4.3h-4.3c-28.7,0-58.1-16.2-58.4-16.4l-2.1-1.1v147.4l1.2-0.3
			C128.8,197.6,189.8,178.9,189.8,73.2z"/>
		<path class="st3" d="M125,61.1c-7.1,3.6-30.9,15.1-56.1,16.3c1.4,88.4,47.8,109.3,56.1,112.2c8.3-3,54.7-23.8,56.1-112.2
			C155.9,76.2,132.1,64.7,125,61.1z"/>
		<path class="st3" d="M181.1,77.4c-25.2-1.2-49-12.7-56.1-16.3v128.5C133.3,186.7,179.7,165.8,181.1,77.4L181.1,77.4z"/>
		<g>
			<path class="st4" d="M125,77.5c-21.4,0-38.9,17.4-38.9,38.9s17.4,38.9,38.9,38.9s38.9-17.4,38.9-38.9S146.4,77.5,125,77.5z"/>
		</g>
		<path class="st3" d="M139.2,104.7L125,118.9l-4.3,4.3l-9.9-9.9l-6.1,6.1l16,16l4.3-4.3l20.3-20.3L139.2,104.7z"/>
	</g>
</g>
</svg>
