<?xml version="1.0" encoding="utf-8"?>
<!-- Generator: Adobe Illustrator 22.0.1, SVG Export Plug-In . SVG Version: 6.00 Build 0)  -->
<svg version="1.1" id="Layer_1" xmlns="http://www.w3.org/2000/svg" xmlns:xlink="http://www.w3.org/1999/xlink" x="0px" y="0px"
	 viewBox="0 0 250 250" style="enable-background:new 0 0 250 250;" xml:space="preserve">
<style type="text/css">
	.st0{opacity:0.6;fill:none;stroke:#4B7FBA;stroke-miterlimit:10;}
	.st1{fill:none;stroke:#4B7FBA;stroke-width:2.766;stroke-miterlimit:10;}
	.st2{fill:none;stroke:#010101;stroke-width:2.766;stroke-miterlimit:10;}
</style>
<g>
	<ellipse transform="matrix(0.7071 -0.7071 0.7071 0.7071 -51.7767 125)" class="st0" cx="125" cy="125" rx="122.5" ry="122.5"/>
	
		<ellipse transform="matrix(0.7071 -0.7071 0.7071 0.7071 -26.3372 114.0283)" class="st1" cx="124.5" cy="88.8" rx="27.2" ry="27.2"/>
	<path class="st1" d="M143.5,166.9c0,1.4,0.1,2.7,0.3,4.1H78.2c0-25.5,20.7-46.2,46.2-46.2c14.5,0,27.4,6.6,35.9,17.1
		C150.5,145.8,143.5,155.5,143.5,166.9z"/>
	<path class="st2" d="M191,166.9c0,11.2-9.1,20.3-20.3,20.3c-9.8,0-18-7-19.9-16.2c-0.3-1.3-0.4-2.7-0.4-4.1c0-9,5.9-16.6,14-19.3
		c2-0.7,4.1-1,6.3-1C181.9,146.6,191,155.7,191,166.9z"/>
	<g>
		<line class="st2" x1="170.7" y1="157.6" x2="170.7" y2="176.1"/>
		<line class="st2" x1="179.9" y1="166.9" x2="161.5" y2="166.9"/>
	</g>
</g>
</svg>
