<?xml version="1.0" encoding="utf-8"?>
<!-- Generator: Adobe Illustrator 22.0.1, SVG Export Plug-In . SVG Version: 6.00 Build 0)  -->
<svg version="1.1" id="Layer_1" xmlns="http://www.w3.org/2000/svg" xmlns:xlink="http://www.w3.org/1999/xlink" x="0px" y="0px"
	 viewBox="0 0 250 250" style="enable-background:new 0 0 250 250;" xml:space="preserve">
<style type="text/css">
	.st0{opacity:0.15;fill:none;stroke:#4D7FBF;stroke-width:2.2578;stroke-miterlimit:10;}
	.st1{fill:#FAA61A;}
	.st2{opacity:0.67;fill:#F78D1E;}
	.st3{fill:#536F7C;}
	.st4{fill:#778E9C;}
	.st5{fill:#AEBCC3;}
	.st6{fill:none;stroke:#536F7C;stroke-width:7.5803;stroke-miterlimit:10;}
	.st7{fill:#445B67;}
	.st8{opacity:0.61;fill:#536F7C;}
	.st9{fill:#8DA2AE;}
</style>
<g>
	<circle class="st0" cx="125" cy="125" r="122.5"/>
	<g>
		<polygon class="st1" points="186.4,181.7 63.6,181.7 63.6,106.8 125,57.6 186.4,106.8 		"/>
		<polygon class="st2" points="186.4,106.8 186.4,181.7 125,181.7 125,57.6 125,57.6 		"/>
		<rect x="81.4" y="110" class="st3" width="88.1" height="11.4"/>
		<rect x="89.2" y="170.4" class="st4" width="71.5" height="11.4"/>
		<rect x="89.3" y="121.4" class="st4" width="71.5" height="11.4"/>
		<rect x="89.3" y="136.9" class="st4" width="71.5" height="11.4"/>
		<rect x="89.2" y="154.1" class="st4" width="71.5" height="11.4"/>
		<rect x="89.3" y="132.3" class="st3" width="71.5" height="5.7"/>
		<rect x="89.3" y="148.4" class="st3" width="71.5" height="5.7"/>
		<rect x="89.3" y="164.9" class="st3" width="71.5" height="5.7"/>
		<rect x="56.2" y="181.5" class="st5" width="137.6" height="11.4"/>
		<polyline class="st6" points="191.1,110 125,57.1 58.9,110 		"/>
		<rect x="125" y="110" class="st7" width="44.5" height="11.4"/>
		<rect x="125" y="121.4" class="st8" width="35.8" height="10.8"/>
		<rect x="125" y="138" class="st8" width="35.7" height="10.4"/>
		<rect x="125" y="154.1" class="st8" width="35.7" height="10.8"/>
		<rect x="125" y="132.3" class="st3" width="35.7" height="5.7"/>
		<rect x="125" y="148.4" class="st3" width="35.7" height="5.7"/>
		<rect x="125" y="164.9" class="st3" width="35.7" height="5.4"/>
		<rect x="125" y="181.5" class="st9" width="68.8" height="11.4"/>
		<rect x="125" y="170.7" class="st8" width="35.7" height="10.8"/>
	</g>
</g>
</svg>
